<?xml version="1.0" encoding="UTF-8"?>
<svg id="Layer_2" data-name="Layer 2" xmlns="http://www.w3.org/2000/svg" viewBox="0 0 323.81 184.53">
  <defs>
    <style>
      .cls-1 {
        opacity: .78;
      }

      .cls-1, .cls-2, .cls-3 {
        fill: #60605f;
      }

      .cls-4 {
        fill: #fff;
      }

      .cls-5 {
        fill: #eb2c3b;
      }

      .cls-6 {
        fill: #f1bb1b;
      }

      .cls-3 {
        opacity: .97;
      }

      .cls-7 {
        fill: #f0efc9;
      }

      .cls-8 {
        fill: #010101;
      }
    </style>
  </defs>
  <g id="Layer_1-2" data-name="Layer 1">
    <g>
      <path class="cls-2" d="M247.21,142.69c.21.1.38.13.61.13,19.53,0,39.07-.75,58.6-.64.7,0,1.44.09,2.18.11.66.02,1.18.56,1.17,1.22l-.26,19.19c0,.64-.51,1.16-1.15,1.19l-59.32,3.05c-.68.03-1.25-.5-1.27-1.18l-.57-23.09ZM307.51,161.27l-.27-11.05c0-.23-.33-.27-.39-.05l-1.32,4.72c-.99,2.71-1.61,3.46-4.26,4.67l-4.63,1.59c-.22.07-.16.39.07.39l10.8-.27ZM251.56,151.64l.29,11.6c0,.05.05.1.1.1l12-.3-2.98-.75c-3.14-.92-6.4-1.78-7.46-5.28l-1.76-5.4c-.04-.11-.19-.08-.19.03Z"/>
      <path class="cls-2" d="M79.31,151.38c-.82,5.17,1.32,10.49,5.5,13.61.56.42,1.23.72,1.75,1.2-4.3.26-7.36-3.16-8.39-7.05-1.68-6.36-.16-14.48,6.07-17.77,1.66-.88,2.18-.67,3.95-.8,12.09-.93,24.42-.98,36.56-1.59.46-.02,2.89-.39,3.08-.21.06,1.25.7,2.04,1.8,2.56l.05.19c-4.61,6.84-6.11,16.63.97,22.43-.27.42-1.24,1.74-1.73,1.54-.39-.16-1.89-1.5-2.26-1.87-6.85-6.92-4.92-16.67.52-23.74l-8.59.21c-1.59,1.78-3.89,5.17-4.01,7.59,0,.16-.02.3.14.14.55-.55,1.16-1.71,1.73-2.38.31-.36,1.72-1.9,2.08-1.91l4.61-.11c-1.38,2.15-2.68,4.6-2.71,7.22l-6.32.16c-.42,4.52.72,9.42,3.89,12.77.57.61,1.27,1.06,1.83,1.67l-2.96.07c-.21,0-2.04-1.65-2.32-1.93-4.07-4.18-5.19-9.74-3.89-15.38.18-.78.51-1.5.84-2.22-.23-.23-2.21,1.79-2.42,2.06-.69.87-1.23,1.93-1.58,2.99l-19.39.48c-1.24,5.93,1.94,10.92,6.14,14.7l-3.92.1c-2.04-2.19-3.91-4.75-4.8-7.65-1.15-3.72-.75-8.11.81-11.64-1.54.98-2.72,2.67-3.05,4.48l-3.99.1ZM116.18,140.15l-23.26,1.15c-2.25,2.05-3.49,4.99-4.16,7.91,1.13-1.64,2.37-3.27,3.98-4.47l19.6-.79c.4-.94,1.13-1.6,1.82-2.32l2.03-1.49ZM90.34,141.34l-4.61.11c-.1,0-1.39.88-1.6,1.03-1.92,1.38-3.66,3.52-4.21,5.85l2.91-2.93,4.28-.16c.59-1.62,2.09-2.68,3.23-3.91Z"/>
      <path class="cls-7" d="M214.44,137.21c10.07-1.09,15.41,10.52,15.08,19.04-.35,8.99-7.69,19.36-17.73,15.52-14.09-5.39-12.74-32.91,2.65-34.57ZM213.4,140.41c-1.38-1.28-3.23.88-1.84,2,1.41,1.13,3-.92,1.84-2ZM220.78,143.98c1.17-1.26-.52-3.43-2.08-2.18-1.65,1.32.66,3.7,2.08,2.18ZM213.12,166.22c10.16-.2,12.12-15.35,4.41-20.35-5.93-3.85-12.03,1.35-12.84,7.44-.03.4.16.09.25-.03.28-.4.51-.86.82-1.23,1.74-2.09,4.7-3.59,7.32-4.24l-2.09,1.84c-2.14,2.79-1.58,7.6,1.91,9,1.85.74,3.76.47,5.69.37-.51,1.84-1.57,3.66-2.9,5.02-.77.79-1.8,1.39-2.56,2.19ZM205.55,145.39c-1.37.32-.8,2.48.68,1.99,1.1-.36.71-2.32-.68-1.99ZM224.16,146.59c-2.23.18-1.98,3.51.19,3.41,2.35-.11,2.09-3.59-.19-3.41ZM225.72,154.68c-2.71.18-2.5,4.25.2,4.16,2.73-.09,2.5-4.34-.2-4.16ZM223.7,161.45c-2.53.35-1.18,4.36,1.06,3.03,1.6-.95.6-3.26-1.06-3.03ZM205.53,163.56c-.75.84.62,2.3,1.44,1.3s-.62-2.21-1.44-1.3ZM210.07,166.6c-1.26.31-.92,2.52.68,2.13,1.32-.33.92-2.52-.68-2.13ZM217.92,169.22c1.44,1.27,3.21-1.34,1.47-2.18-1.37-.66-2.58,1.2-1.47,2.18Z"/>
      <path d="M237.73,176.61c2.13-2.59,4.05-5.57,4.46-8.98l-1.26,2.29c-1.37,2.24-2.98,4.35-5,6.05l1.97-2.62c1.25-1.83,2.69-4.62,2.99-6.82.02-.15.13-.48-.11-.44-1.38,2.77-3.13,5.57-5.1,7.97-.38.46-1.06,1.32-1.47,1.68-.15.13-.21.34-.47.29l4.12-6.75,1.67-3.79c0-.36-.01-.3-.17-.03-.8,1.32-1.77,2.56-2.76,3.75,1.74-3.81,2.86-7.91,3.14-12.11,1.08-16.42-10.63-33.39-28.38-31.83-.82.07-1.68.36-2.48.46-.15.02-.49.14-.47-.11.81-.33,1.61-.71,2.45-.96,11.99-3.56,25.32,7.45,29.74,17.97l3.42,1.9.62,23.68c-1.23,2.66-3.11,4.97-5.16,7.04l-1.76,1.35Z"/>
      <path d="M62.93,173.24l2.85-4.74.57-1.81-2.98,4.2-.68.56c-.21-.1.02-.33.09-.45.71-1.35,1.42-2.69,2.07-4.07.02-.41-.16-.1-.25.03-.89,1.25-1.66,2.66-2.82,3.69.6-1.44,1.54-2.73,1.82-4.31-.87,1.08-1.53,2.33-2.39,3.42-.15.19-1.16,1.5-1.34,1.34.69-1.11,1.44-2.25,1.91-3.49.19-.5.45-1.17.37-1.66l-.94.98c-.1.02-.09-.13-.07-.2.23-.79.78-1.77,1.04-2.64,1.6-5.37,1.23-12.33-.54-17.63-.37-1.09-1.01-2.11-1.35-3.1-.02-.07-.04-.22.06-.2l1.64,2.16c.25.03.12-.31.09-.45-.16-.72-.61-1.49-.87-2.19l-2.13-3.61c1.95,1.6,3.58,3.75,4.82,5.93.25.03.11-.29.07-.42-.64-2.04-2.28-3.84-3.52-5.54.26-.07.33.14.49.26,1.61,1.29,3.46,3.81,4.44,5.63.16.3.21.28.17-.04-.08-.64-.58-1.73-.86-2.34-1.17-2.53-2.84-4.64-4.86-6.52.83.05,1.82.89,2.45,1.45,5.81,5.17,7.69,14.43,6.92,21.89-.51,4.94-2.13,10.73-6.24,13.86Z"/>
      <path class="cls-7" d="M39.76,144.55c6.35-1.25,7.85,9.9,7.54,14.15-.29,3.86-2.98,12.49-8.43,9.14-5.81-3.56-6.17-19.03-.34-22.72.32-.2.87-.5,1.23-.57ZM42.04,146.39c-1.49-1.31-3.2.1-4.07,1.43-2.77,4.26-2.61,12.57,0,16.86,2.87,4.7,6.09,1.67,7.35-2.22.75-2.3,1.12-4.2-.06-6.43-1.93-3.61-4.95-.75-5.51,2.06-.44,2.19.16,4.4.81,6.47-3.78-5.02-2.49-13.61,3.02-16.92-.33-.69-2,.34-2.45.62-1.38.87-2.11,1.99-2.95,3.29.41-2.1,1.62-4.59,3.86-5.19Z"/>
      <path class="cls-1" d="M42.03,143.48c3.64.18,8.12,2.47,9.92,5.7,1.62,2.91,2.29,6.15,2.81,9.41-1.97-.16-3.95.28-5.92.18-.28-.01-.57-.04-.79-.21-.51-.38-.53-1.46-.69-2.04-.24-.83-.53-1.65-.88-2.44-.69-1.52-1.63-2.94-2.88-4.06-1.96-1.77-4.74-2.47-7.31-2.63-.08,0-.17-.01-.22-.08-.05-.06-.03-.15,0-.23.33-1.15,1.31-1.93,2.27-2.55,1.09-.71,2.4-1.12,3.7-1.06Z"/>
      <path class="cls-7" d="M15.31,145.44c4.52-.48,6.35,6.52,6.61,9.9.28,3.72-.68,12.34-5.7,12.54-4.75.19-6.45-8.29-6.39-11.82.05-3.25,1.42-10.19,5.49-10.62ZM16.88,147.01c-1.27-1.18-2.81-.14-3.67,1.01-2.94,3.92-2.76,13.3.34,17.08s5.83-.51,6.64-3.59c.51-1.93.73-3.24-.13-5.08-1.71-3.7-4.75-1.34-5.35,1.61-.43,2.11.13,4.04.66,6.06l-.79-1.07c-1.38-2.72-1.45-6.84-.44-9.69.75-2.14,2.3-3.9,4.14-5.19.03-.64-2.05.46-2.23.56-1.12.69-2.16,1.83-2.64,3.06-.24.04-.14-.31-.12-.45.33-1.66,1.79-3.99,3.58-4.32Z"/>
      <polygon class="cls-7" points="204.37 84.38 190.47 84.58 192.54 73.87 201.98 74.97 204.37 84.38"/>
      <path class="cls-7" d="M184.82,73.41l-2.9,11.06c-2.19.35-4.24-.42-5.2-2.47l-2.51-9.56,10.62.97Z"/>
      <path class="cls-2" d="M129.73,159.48c3.84-3.69,5.19-9.3,5.7-14.44,2.01,2.67,2.28,6.36,1.68,9.59-.3,1.6-.87,3.4-1.81,4.72l-5.57.14Z"/>
      <path class="cls-7" d="M297.86,126.99l-.03-1.1,3.51-.09c.54-.01.93-1.34.85-1.81-.11-.11-.94.49-1.19.55-1.74.41-1.71-.9-2.31-2.03-.22-.41-.85-1.03-.86-1.37-.03-.89,1.74-1.02,2.39-.94.44.05.68.36,1.05.31-.72-1.07-1.74-1.7-3.06-1.51l-.04-1.65,3.92-.1c.75-.02,1.75,1.05,1.94,1.77.26.96.3,4.39.02,5.33-.18.62-1.56,2.52-2.13,2.53l-4.06.1Z"/>
      <path class="cls-6" d="M171.16,50.67c4.36-.92,6.25,6.08,3.26,8.34-4.02,3.03-8.05-4.74-4.24-7.79.29-.23.61-.47.98-.55ZM171.25,52.84c-.82,1.26-1.37,2.65-.43,4.04,1.25,1.86,3.8.2,3.36-1.13-.32-.98-1.87.24-2.18.04-.13-.55-.61-1.47-.71-1.95-.07-.37.23-.87-.05-.99Z"/>
      <path class="cls-6" d="M196.53,53.21c4.69-.98,6.39,6.85,2.76,8.66-3.99,1.99-7.19-5.13-3.81-8.05.3-.26.65-.53,1.05-.61ZM196.77,55.65c-.32-.08-.23.08-.31.18-1.02,1.24-1.24,3.51.29,4.42,1.44.85,3.59-1.14,2.55-1.98-.73-.59-1.19.2-1.72.24-.65.06-.41-.54-.55-.96-.22-.65-.64-1.16-.26-1.91Z"/>
      <path class="cls-6" d="M184.26,52.14c2.46-.41,4.29,2.45,4.42,4.61.14,2.47-1.73,5.33-4.47,4.26-3.52-1.38-3.72-8.24.06-8.87ZM184.72,57.44c-.03-.61-.51-1.33-.6-1.84-.07-.43.09-.76.03-1.16-1.12,1.23-1.54,3.1-.31,4.41,1.08,1.16,3.05.21,3.21-1.25-.55-1.26-1.44-.19-2.33-.17Z"/>
      <polygon class="cls-7" points="210.34 75.94 209.58 84.07 206.43 84.13 204.27 75.4 210.34 75.94"/>
      <polygon class="cls-7" points="210.95 84.04 211.51 76.04 214.08 76.34 215.76 83.92 210.95 84.04"/>
      <polygon class="cls-7" points="186.19 84.69 188.89 73.87 191.05 73.9 189.1 84.39 188.92 84.64 186.19 84.69"/>
      <polygon class="cls-2" points="68.5 70.37 63.53 80.67 63 73.39 68.5 70.37"/>
      <polygon class="cls-7" points="151.7 85.7 154.75 85.38 158.91 87.99 151.79 89.27 151.7 85.7"/>
      <g>
        <path class="cls-5" d="M134.34,142.87c-1.25-.18-3.85-2.12-4.11-3.44.12-4.14-.63-8.81-.36-12.89.12-1.72,2.81-2.49,4.2-2.85-.36-.24-1.02-.3-1.45-.31-1.56-.07-3.34.08-4.88.26-.05-6.48-.26-12.97-.35-19.46-.23-16.98-.57-34.02-.56-51,0-.55.03-1.43-.05-1.94-.19-1.19-3.28-3.94-3.29-5.42,0-.34.71-1.28.89-1.69.7-1.58,1.1-3.26,1.25-4.98.09-1.05-.45-2.21,1.22-1.53,2.82,1.14,7.9,5.59,8.33,8.74l2.3,91.5c.12,1.34,1.34,2.66,2.4,3.41,1.32.92,3.49.24,5.07.35.27-1.21.67-2.62,1.73-3.39.14-.1.92-.51,1.01-.52l23.58-.58c-.42.94-.71,2.01-.75,3.04l-17.99,1.2,15,.81,4.55,16.51,13.06-.32c-.81-7.9-.16-15.87,2.88-23.22,4.64-11.22,15.21-20.83,27.71-21.81,6.96-.55,14.53.26,20.77,3.42-.62,2.76-.41,5.29,1.92,7.15,2.87,2.29,8.23,2.61,11.82,3.66,4.68,1.38,9.37,3.74,12.36,7.6l-.26-11.68-19.38.45c-.75.02-2.39-.88-2.99-1.37-3.71-3.03-1.15-7.59,2.89-8.25,4.59.12,9.46-.55,14.02-.35,1.95.09,4.04.55,5.48,1.93.04-1.41-.76-2.31-1.73-3.2-.16-.15-.42-.16-.42-.19l-.19-7.56-3.71,5.87-.59-23.58c.16-1.57.25-3.15.85-4.62-1.9.5-3.26,2.1-4.17,3.75l-63.8,6.87c.79-2.21,2.87-4.38,5.21-4.9,9.43-1.24,18.92-2.07,28.36-3.22,15.08-1.83,30.12-4.34,45.24-5.64,6.21,1.15,12.7,1.55,18.89,2.72,10,1.9,8.02,11.85,8.3,19.63.4,11.29.76,22.63.99,33.94-.01.73-.38,1.37-.78,1.94-.25.16-3.46.17-4.06.18-5.52.04-11.12.11-16.63-.01-1.92-.04-2.54.35-4.34-.65-1.53-.85-2.7-2.08-3.56-3.59l-1.01-2.68.15,5.98c0,.23.48.75.51,1.02l-23.43.14c-2.28-6.85-7.23-12.72-13.27-16.59-8.77-5.62-19.04-5.9-27.51.46-12.26,9.21-16.68,26.36-14.78,41.11l-.11.16-26.74,1.28c-.32,0-.63-.13-.95-.13-5.11.05-10.19-.05-15.28-.16l-11.49-.27-.07-2.95.2-.21,29.9-.74-.39-15.67-24.75.61-.05-2.2c-.86-.08-2,.19-2.82.07ZM130.43,121.1l4.67-.12-1.06-.94c-.72-.8-.93-1.89-1.11-2.93l-1.6-64.6c-.38-2.56-1.54-5.17-3.67-6.72.26.7.49,1.41.63,2.16.19.99.2,1.99.39,2.97l1.73,70.17ZM257.08,85.85c-.18,2.37.3,5.09.19,7.49l1.95-7.34c.61,2.35,1.25,4.75,2.2,6.99.06.14.05.41.25.37.12-4.06-1.07-8.75,1.63-12.21-3.11-.01-5.95,1.26-6.21,4.69ZM267.91,85.68c-.67.14-1.13.77-1.38,1.37l1.05,45.16c.09,1.11.91,2.11,2.05,2.22,2.57.25,5.63.01,8.26.06,3.7.07,7.44.29,11.14.29,2.07,0,3.24-.09,3.46-2.49l-.99-39.87c-.04-1.19-.56-2.26-1.69-2.74l-20.87-4.02c-.34-.05-.69-.05-1.03.02ZM244.51,136.56l10.52-.26-5.71-2.67c-6.18-3.43-14.46-7.89-15.13-15.76-4.34-1.69-9.31-2.95-14.01-2.57-.49.04-1.54.1-1.84.46,12.03.71,20.67,11.08,26.17,20.81ZM244.88,115.38c-5.44-.51-7.64,6.09-1.67,7.6,0-.43-.39-.71-.48-1.19-.21-1.1-.06-2.74.84-3.49l1.44,2.71-.14-5.64ZM260.72,115.95l-13.94-.05-.22.19.16,6.53,13.54-.34c.35,0,.92-.6.95-.98l-.16-.28c-.98.11-2.31.5-3.28.35-.61-.1-1.89-1.28-2.52-1.58l-.03,1.65-4.47.11-1.98-2.15-.12-1.78,5.29-.13c.67-.02.93,1.38.8,1.9.81-.03,1.14-.97,1.06-1.68,1.19.08,2.61-.22,3.77-.08.57.07.72.38,1.19.51l-.05-2.2ZM133.04,137.88l-.27-10.79-.98,4.97-.21-.41-1.01-4.37.28,11.34c0,.3.79,1.09,1.06,1.28,1.34.94,3.46,1.1,5.05,1.25l-2.65-1.51c-.47-.39-1.16-1.15-1.28-1.76Z"/>
        <path class="cls-5" d="M182.54,97.8c-5.05-1.39-10.8-1.57-15.5,1.02l-1.37.91c5.6-1.33,11.43-1.02,17.05,0l.22,8.65c.5-.17,2.9.27,2.91.82l.21,8.59-2.75.07.15,6.18-12.58.31c-.5.01-1.89.71-1.68,1.42l11.48-.28c.57-.01.93.83.79,1.36l-14.92.37c-1.06-1.1-1.81-2.49-2.09-4.01l-.36-15.24c.11-.36,2.95-.89,3.48-.98,1.8-.29,3.54-.31,5.34-.43.17-.01.51.09.48-.15-3.1-.47-6.23-.45-9.36-.32-.18-1.1,1.68-.87,2.42-1.26l6.88-1.03c-3.09-.66-6.26-.76-9.36-.05l-.35-14.22c.37-.46.95-.77,1.49-1,3.31-1.43,13.32-1.87,16.34.18.22.15.88.68.89.9l.2,8.18ZM181.09,89.45c-1.33-.78-2.89-1.22-4.44-1.33,1.1.58,2.66,1.29,2.83,2.67.19,1.64-.04,3.54.12,5.21l1.67.46-.17-7.01ZM182.21,123.25l-.56-22.61c-.56-.4-1.4-.43-2.07-.43l.54,21.92c0,.09-.35.53-.46.63-.28.24-.72.28-.88.57l3.44-.09Z"/>
        <path class="cls-5" d="M246.32,101.18c.04.24-.31.14-.48.15-2.83.18-6.04.44-8.63,1.72-.13.07-.32.09-.33.29,5.63.73,11.16,3.67,14.92,7.88-.88-.32-1.68-.84-2.55-1.2-2.8-1.15-6.2-1.89-9.2-2.32-14.9-2.14-28.99.9-42.26,7.63-1.08.55-2.11,1.21-3.21,1.71,4.39-5.63,10.75-9.8,17.59-11.85-.06-.25-.28-.25-.48-.27-2.57-.22-6.47.24-9.05.66-1.45.24-2.9.6-4.33.91,3.51-2.89,8.07-4.95,12.47-6.18,11.48-3.21,24.15-2.09,35.54.87Z"/>
        <path class="cls-5" d="M142.37,63.21c1.23-.77,2.71-.87,4.12-.95.41-.99,1.21-1.58,2.32-1.44,3.71.83,7.65,1.36,11.3,2.37,1.48.41,3.06.81,1.43,2.49-.2,6.64.29,13.38.33,20.06-.07.65,2.52,1.47,2.52,1.72l-.8.85-10.04-5.68c-2.09-.15-9.4.31-10.62-1.54l-.57-17.89ZM152.37,62.66c-1.24-.03-2.53-.41-3.54-1.15-1.53,1.71.75,1.94,1.26,3.33-.1,4.07.45,8.34.31,12.38-.02.66-.13,2.08-.49,2.59s-2.3.59-2.71.27c-.84-.66-1.18-3.46-1.42-4.5-.03-.13-.06-.41-.25-.37l.16,6.46,7.15-.18-.47-18.83ZM160.26,64.66l-6.51-1.77.32,18.42,6.19-16.65ZM160.76,85.14l-.46-18.42-5.53,15.06,5.98,3.36Z"/>
        <path class="cls-5" d="M182.47,134.11l-43.31,1.07-.11-4.26,38.29-.95c1.72,1.36,3.53,2.64,5.12,4.14Z"/>
        <path class="cls-5" d="M138.66,59.28c3.3-1.65,6.94-2.61,10.6-3.13,5.76-.82,11.75-.8,17.56-.57l.21.21.64,2.44c-2.11-.02-4.28.14-6.39.37-3.67.4-7.58,1.49-11.25,1.38-1.15-.04-1.99-.36-3.27-.16-.99.16-1.62.82-2.55,1.07-.69.19-1.36.12-2.07.45-1.04.48-1.85,2.05-1.98,3.14l-1.37.18-.13-5.36Z"/>
        <path class="cls-5" d="M222.41,74.54c-4.89-1.59-9.61-4.03-14.7-4.93l-6.31-6.92v-.27s.87-1.2.87-1.2l.31-.05,13.07,4.76,6.76,8.62Z"/>
        <path class="cls-5" d="M162.57,124.7v1.15s-.31.23-.31.23l-15.53.38c-3.15-.19-5.42-2.43-5.72-5.56-.57-6,.02-12.51-.46-18.57.21-3.31,0-6.7.52-9.98.21,1.61.46,3.25.6,4.87.4,4.81.38,9.62.49,14.42.06,2.54-.18,9.09.76,11.06.47.99,2.1,2.42,3.22,2.4l16.43-.41Z"/>
        <path class="cls-5" d="M178.73,66.27c-2.11.01-4.15.76-6.24.98-.79.08-2.17.22-2.9-.05-.61-.23-2.03-2.99-3.04-3.72s-2.83-.44-1.92-2.49c.41-.93,2.65-1.72,3.58-2.15,1.21,2.18,3.94,3.16,6.26,2.24l4.25,5.19Z"/>
        <path class="cls-5" d="M308.85,137.72l-9.63.1c1.05-.81,1.56-1.73,2.07-2.93l2.02,1.25c-.75-2.43-2.11-4.51-4.27-5.87.7.15,2.31-.89,2.78-.86.97.06,2.79,1.7,3.45,2.43,1.48,1.63,2.8,3.86,3.59,5.89Z"/>
        <path class="cls-5" d="M147.81,84.22l-2.01,2.18c.14.21.28.17.48.2,1.27.15,2.6.23,3.63-.64.07,2.16-.97,4.06-3.16,4.58-4.9,1.16-4.83-3.77-4.06-7.15.21-.16,1.68.95,2.05,1.02.9.18,2.15-.12,3.06-.18Z"/>
        <polygon class="cls-5" points="193.03 60.55 189.86 60.08 190.23 58.28 192.37 58.64 193.03 60.55"/>
        <polygon class="cls-5" points="180.06 58.67 177.02 58.33 177.54 56.55 179.6 56.68 180.06 58.67"/>
      </g>
      <polygon class="cls-4" points="220.59 78.71 221.4 78.7 222.06 82.16 220.69 82.97 220.59 78.71"/>
      <path d="M133.04,137.88c.12.61.81,1.37,1.28,1.76l2.65,1.51c-1.59-.15-3.71-.3-5.05-1.25-.27-.19-1.06-.98-1.06-1.28l-.28-11.34,1.01,4.37.21.41.98-4.97.27,10.79Z"/>
      <path d="M116.18,140.15l-2.03,1.49c-.69.72-1.42,1.38-1.82,2.32l-19.6.79c-1.61,1.2-2.85,2.82-3.98,4.47.67-2.93,1.91-5.86,4.16-7.91l23.26-1.15Z"/>
      <path d="M90.34,141.34c-1.14,1.23-2.63,2.29-3.23,3.91l-4.28.16-2.91,2.93c.56-2.33,2.29-4.47,4.21-5.85.21-.15,1.5-1.03,1.6-1.03l4.61-.11Z"/>
      <path d="M213.12,166.22c.76-.8,1.79-1.4,2.56-2.19,1.33-1.37,2.39-3.18,2.9-5.02-1.93.1-3.84.37-5.69-.37-3.49-1.4-4.05-6.21-1.91-9l2.09-1.84c-2.62.65-5.57,2.15-7.32,4.24-.31.38-.54.84-.82,1.23-.09.13-.27.44-.25.03.81-6.09,6.91-11.29,12.84-7.44,7.71,5.01,5.75,20.16-4.41,20.35Z"/>
      <path d="M225.72,154.68c2.7-.18,2.93,4.07.2,4.16-2.69.09-2.91-3.98-.2-4.16Z"/>
      <path d="M224.16,146.59c2.27-.18,2.54,3.3.19,3.41-2.16.1-2.42-3.23-.19-3.41Z"/>
      <path d="M223.7,161.45c1.66-.23,2.66,2.08,1.06,3.03-2.24,1.33-3.59-2.68-1.06-3.03Z"/>
      <path d="M220.78,143.98c-1.42,1.52-3.72-.86-2.08-2.18,1.56-1.25,3.24.92,2.08,2.18Z"/>
      <path d="M213.4,140.41c1.17,1.08-.43,3.13-1.84,2-1.39-1.12.46-3.28,1.84-2Z"/>
      <path d="M217.92,169.22c-1.11-.98.09-2.84,1.47-2.18,1.74.84-.02,3.45-1.47,2.18Z"/>
      <path d="M210.07,166.6c1.6-.39,2,1.8.68,2.13-1.6.39-1.94-1.82-.68-2.13Z"/>
      <path d="M205.55,145.39c1.39-.33,1.77,1.63.68,1.99-1.48.48-2.05-1.67-.68-1.99Z"/>
      <path d="M205.53,163.56c.82-.91,2.26.29,1.44,1.3s-2.19-.46-1.44-1.3Z"/>
      <polygon points="160.26 64.66 154.07 81.32 153.75 62.9 160.26 64.66"/>
      <polygon points="160.76 85.14 154.78 81.78 160.31 66.72 160.76 85.14"/>
      <path d="M42.04,146.39c-2.24.6-3.45,3.08-3.86,5.19.85-1.31,1.58-2.43,2.95-3.29.45-.28,2.12-1.31,2.45-.62-5.51,3.31-6.8,11.9-3.02,16.92-.65-2.08-1.24-4.28-.81-6.47.56-2.81,3.58-5.67,5.51-2.06,1.19,2.22.81,4.12.06,6.43-1.26,3.89-4.48,6.92-7.35,2.22-2.62-4.3-2.77-12.6,0-16.86.87-1.34,2.57-2.75,4.07-1.43Z"/>
      <path d="M16.88,147.01c-1.79.33-3.24,2.66-3.58,4.32-.03.14-.12.49.12.45.48-1.23,1.51-2.37,2.64-3.06.17-.11,2.26-1.2,2.23-.56-1.83,1.29-3.38,3.05-4.14,5.19-1,2.85-.93,6.97.44,9.69l.79,1.07c-.53-2.02-1.09-3.96-.66-6.06.6-2.95,3.64-5.31,5.35-1.61.86,1.85.64,3.16.13,5.08-.81,3.08-3.52,7.39-6.64,3.59s-3.28-13.15-.34-17.08c.86-1.15,2.4-2.19,3.67-1.01Z"/>
      <polygon class="cls-7" points="269.52 87.53 270.63 132.68 269.26 132.71 268.13 87.28 269.52 87.53"/>
      <polygon class="cls-7" points="272.55 88.15 273.65 132.68 272.27 132.71 271.16 87.91 272.55 88.15"/>
      <polygon class="cls-7" points="275.59 88.76 276.68 132.74 275.44 132.77 274.34 88.52 275.59 88.76"/>
      <path class="cls-7" d="M281.53,89.85l1.06,43.02c-.42-.03-.94.18-1.24-.18l-1.06-42.95,1.24.11Z"/>
      <polygon class="cls-7" points="278.49 89.24 279.57 132.81 278.47 132.84 277.39 89.13 278.49 89.24"/>
      <polygon class="cls-7" points="287.2 90.95 288.23 132.8 288.02 133 287.14 132.9 286.09 90.84 287.2 90.95"/>
      <polygon class="cls-7" points="284.29 90.33 285.35 132.94 284.39 132.96 283.33 90.22 284.29 90.33"/>
      <path class="cls-7" d="M289.89,132.97l-1.03-41.64c.58-.09.86.52.86,1l.99,40.15c.04.55-.38.51-.82.49Z"/>
      <path class="cls-7" d="M261.36,114.38c.02-.14.77.19.35.09-1.98-.49-2.97-.74-3-.75-2.63-.45-5.44.18-9.64.03-2.63-.09-3.65-.41-6.09-.1-1.95.25-3.02.68-3.85,1.49-.99.98-1.28,2.15-1.39,2.61-.08.36-.55,2.55.71,4.38.9,1.31,2.21,1.73,4.36,2.38.44.13,2.05.6,5.48.88,2.57.21,2.27,0,7.44.07,3.47.05,5.09.16,5.75-.88.15-.24.18-.66.24-1.49.1-1.6.2-3.11-.07-5.26-.17-1.39-.06-1.95.07-2.55.11-.54-.38-.76-.36-.9Z"/>
      <polygon class="cls-2" points="137.39 124.08 126.61 123.93 122.66 35.16 137.31 40.88 137.39 124.08"/>
      <path class="cls-2" d="M115.13,14.41l17.66-10.71.96-.41,45.92,11.99.76,5.97-47.63-12.29-10.4,10.5.24,9.83,4.19-2.99-.07-2.75,19.53,5.29-17.48-2.87-.18.82,40.7,12.6.42.41,1.94,9.03c-2.17.03-3.72,1.72-4.45,3.62-.26.17-2.94-.12-3.51-.13-6.52-.09-13.5.19-19.84,1.8-1.82.46-3.62,1.05-5.32,1.85l-.23-9.41c-.11-4.43-6.45-10.19-10.28-11.76-4.66-1.91-7.86,3.79-8.1,7.7-.24,3.96,1.61,6.58,3.67,9.65.28,11.21.24,22.41.55,33.62l-6.33-.69-3.29-54.29,3.42,4.8-2.54-10.66-6.44-2.05,5.32,61.89L7.96,133.22l-3.71,9.16-1.25-50.51,77.01-45.43-8.58,17.81-12.12,6.65,1.25,12.33,2.45-1.16-3.46,7.51-11.67,6.62,1.27,12.21,3.05-1.69-.69-8.14,5.23-2.88-1.86,4.2-1.63,7.71L96.5,20.18c1.3-1.54,3.76.3,5.3.62,2.14.45,3.47-.06,5.11-1.42,2.96.38,5.69,1.64,8.4,2.81l-.19-7.77ZM73.73,87.23l-.1-4.19-4.21,2.1,7.88-15.12.22,3.43,3.06-1.59c.13-.22.05-1.25.03-1.59-.1-1.72-.57-3.81-.57-5.48,0-.98.77-1.59,1.52-2.06,2.2-1.38,4.76-2.42,6.87-3.93l-.1-4.19-4.14,2.3-.21-.2,9.31-18.08,6.08-3.57-.13-6.97,6.66-2.39-7.58-2.98c-.67-.02-1.82,1.63-2.34,2.05.52.13,1.11-.13,1.64-.19.18-.02.32-.21.28.14l-43.32,83.87.07.2,3.1-2.83c.31-.06.2.1.18.31-.05.48-.33,1.04-.35,1.55l.2-.07,4.73-9.19.43,3.29,2.92-1.58c.08-2.4-.3-4.81-.52-7.2l.67-1.39,7.71-4.47ZM103.65,50.66l-.11-4.4-11.96,6.57c.13.85.27,1.73.35,2.59.27,2.89.33,6.71.93,9.46.04.17-.1.25.2.2l2.93-1.67-.69-8.14,8.35-4.61ZM106.22,65.59l-11.73,6.36-.22.46,1.12,11.81c.03.18-.07.25.21.2.15-.03,2.54-1.32,2.7-1.46.08-.06.17-.1.19-.22.03-.4.02-.81,0-1.21-.11-1.73-.44-3.48-.55-5.21-.03-.43-.12-1.51.09-1.81l8.29-4.73-.1-4.19ZM56.73,72.73l-10.33,5.57,1.09,10.27c-.03.2,0,.25.21.2.25-.05,2.45-1.34,2.48-1.52l-.49-6.92,7.12-4.09-.09-3.5ZM90.03,78.78l-.11-4.4-11.95,6.68,1.34,12.28,2.89-1.81-.52-8.14,8.35-4.61ZM43.16,80.21l-10.33,5.57c.25,2.05.5,4.1.71,6.15.14,1.36.14,2.76.38,4.11.03.15-.06.29.2.2.29-.09,2.45-1.34,2.49-1.52l-.49-6.92,7.12-4.09-.09-3.5ZM30.95,87.12l-10.11,5.61.87,10.22.21.33,2.49-1.52-.49-6.91,7.12-4.09-.09-3.64ZM18.55,97.53l-.09-3.64-10.15,5.71,1.04,10.28c.05.14-.06.25.21.17.7-.21,1.64-1.1,2.39-1.38l-.53-7.05,7.12-4.09ZM45.92,97.33l-11.27,6.26,1.32,11.32,2.75-1.68-.51-7.59,7.81-4.32-.1-3.99ZM33.39,108.03l-.1-4.05-10.91,6.06-.22.47,1.11,10.98.21.2,2.77-1.67-.72-7.58,7.86-4.4ZM20.21,114.75l-.1-3.85-10.32,5.82,1.17,10.64,2.52-1.39-.57-7.16,7.3-4.06Z"/>
      <path d="M73.73,87.23l-7.71,4.47-.67,1.39c.22,2.39.61,4.8.52,7.2l-2.92,1.58-.43-3.29-4.73,9.19-.2.07c.02-.51.3-1.07.35-1.55.02-.21.12-.37-.18-.31l-3.1,2.83-.07-.2L97.91,24.74c.04-.34-.1-.16-.28-.14-.53.06-1.11.31-1.64.19.52-.43,1.68-2.07,2.34-2.05l7.58,2.98-6.66,2.39.13,6.97-6.08,3.57-9.31,18.08.21.2,4.14-2.3.1,4.19c-2.12,1.51-4.67,2.55-6.87,3.93-.75.47-1.52,1.07-1.52,2.06,0,1.68.46,3.76.57,5.48.02.34.09,1.37-.03,1.59l-3.06,1.59-.22-3.43-7.88,15.12,4.21-2.1.1,4.19Z"/>
      <path d="M106.22,65.59l.1,4.19-8.29,4.73c-.21.3-.11,1.38-.09,1.81.1,1.73.43,3.48.55,5.21.03.4.04.81,0,1.21-.02.11-.11.15-.19.22-.17.14-2.55,1.43-2.7,1.46-.28.05-.18-.02-.21-.2l-1.12-11.81.22-.46,11.73-6.36Z"/>
      <polygon points="90.03 78.78 81.69 83.38 82.21 91.53 79.32 93.34 77.97 81.06 89.93 74.38 90.03 78.78"/>
      <path d="M103.65,50.66l-8.35,4.61.69,8.14-2.93,1.67c-.3.05-.17-.03-.2-.2-.6-2.75-.66-6.57-.93-9.46-.08-.85-.21-1.74-.35-2.59l11.96-6.57.11,4.4Z"/>
      <polygon points="45.92 97.33 46.02 101.32 38.21 105.64 38.72 113.23 35.97 114.91 34.65 103.6 45.92 97.33"/>
      <polygon points="33.39 108.03 25.53 112.43 26.25 120.01 23.48 121.68 23.27 121.48 22.16 110.5 22.38 110.03 33.29 103.97 33.39 108.03"/>
      <polygon points="20.21 114.75 12.91 118.81 13.48 125.96 10.96 127.36 9.8 116.72 20.12 110.9 20.21 114.75"/>
      <path d="M43.16,80.21l.09,3.5-7.12,4.09.49,6.92c-.04.18-2.2,1.42-2.49,1.52-.27.09-.18-.05-.2-.2-.24-1.35-.24-2.75-.38-4.11-.22-2.05-.46-4.11-.71-6.15l10.33-5.57Z"/>
      <path d="M56.73,72.73l.09,3.5-7.12,4.09.49,6.92c-.03.18-2.23,1.47-2.48,1.52-.21.05-.24,0-.21-.2l-1.09-10.27,10.33-5.57Z"/>
      <polygon points="30.95 87.12 31.04 90.76 23.92 94.85 24.41 101.77 21.92 103.29 21.71 102.95 20.84 92.73 30.95 87.12"/>
      <path d="M18.55,97.53l-7.12,4.09.53,7.05c-.75.27-1.69,1.16-2.39,1.38-.27.08-.16-.03-.21-.17l-1.04-10.28,10.15-5.71.09,3.64Z"/>
      <path d="M267.91,85.68c.34-.07.69-.08,1.03-.02l20.87,4.02c1.13.48,1.65,1.55,1.69,2.74l.99,39.87c-.22,2.41-1.39,2.49-3.46,2.49-3.7,0-7.44-.21-11.14-.29-2.63-.05-5.69.19-8.26-.06-1.14-.11-1.97-1.11-2.05-2.22l-1.05-45.16c.24-.6.71-1.23,1.38-1.37ZM269.37,87.54l-1.09-.09-.14.87,1.18,43.75c.21.63.55.6,1.16.54l-1.12-45.08ZM272.55,88.15l-1.38-.24,1.11,44.81,1.37-.03-1.1-44.53ZM275.59,88.76l-1.24-.24,1.1,44.26,1.24-.03-1.09-43.98ZM278.49,89.24l-1.1-.11,1.08,43.71,1.1-.03-1.08-43.57ZM281.53,89.85l-1.24-.11,1.06,42.95c.3.35.83.15,1.24.18l-1.06-43.02ZM284.29,90.33l-.97-.11,1.06,42.74.96-.02-1.05-42.61ZM287.2,90.95l-1.1-.11,1.04,42.06.88.11.22-.2-1.04-41.85ZM289.89,132.97c.44.01.86.05.82-.49l-.99-40.15c0-.49-.28-1.09-.86-1l1.03,41.64Z"/>
      <path d="M130.43,121.1l-1.73-70.17c-.19-.98-.21-1.98-.39-2.97-.14-.74-.37-1.46-.63-2.16,2.13,1.55,3.29,4.16,3.67,6.72l1.6,64.6c.17,1.03.39,2.13,1.11,2.93l1.06.94-4.67.12Z"/>
      <path d="M244.51,136.56c-5.51-9.73-14.15-20.09-26.17-20.81.3-.37,1.35-.42,1.84-.46,4.7-.38,9.67.88,14.01,2.57.67,7.88,8.95,12.34,15.13,15.76l5.71,2.67-10.52.26Z"/>
      <path d="M260.72,115.95l.05,2.2c-.48-.13-.63-.44-1.19-.51-1.16-.13-2.58.16-3.77.08.08.71-.25,1.64-1.06,1.68.13-.52-.14-1.92-.8-1.9l-5.29.13.12,1.78,1.98,2.15,4.47-.11.03-1.65c.63.3,1.91,1.48,2.52,1.58.97.16,2.3-.24,3.28-.35l.16.28c-.03.38-.6.97-.95.98l-13.54.34-.16-6.53.22-.19,13.94.05Z"/>
      <path d="M257.08,85.85c.26-3.43,3.1-4.71,6.21-4.69-2.7,3.46-1.5,8.15-1.63,12.21-.2.04-.19-.23-.25-.37-.95-2.24-1.59-4.64-2.2-6.99l-1.95,7.34c.12-2.4-.37-5.13-.19-7.49Z"/>
      <path d="M244.88,115.38l.14,5.64-1.44-2.71c-.9.75-1.06,2.39-.84,3.49.09.48.48.76.48,1.19-5.98-1.51-3.77-8.11,1.67-7.6Z"/>
      <path class="cls-3" d="M307.31,161.28l-10.6.26c-.23,0-.29-.31-.07-.39l4.62-1.58h.02c2.63-1.22,3.25-1.97,4.24-4.67v-.02s1.32-4.7,1.32-4.7c.06-.22.39-.18.39.05l.27,10.84c0,.11-.08.2-.19.2Z"/>
      <path d="M182.21,123.25l-3.44.09c.16-.29.6-.33.88-.57.11-.1.47-.54.46-.63l-.54-21.92c.67,0,1.52.03,2.07.43l.56,22.61Z"/>
      <path d="M181.09,89.45l.17,7.01-1.67-.46c-.15-1.67.08-3.57-.12-5.21-.16-1.38-1.73-2.1-2.83-2.67,1.55.11,3.11.55,4.44,1.33Z"/>
      <path d="M152.37,62.66l.47,18.83-7.15.18-.16-6.46c.19-.04.22.24.25.37.25,1.04.58,3.84,1.42,4.5.41.32,2.35.25,2.71-.27s.46-1.93.49-2.59c.14-4.04-.41-8.31-.31-12.38-.51-1.39-2.79-1.62-1.26-3.33,1,.74,2.29,1.12,3.54,1.15Z"/>
      <path d="M171.25,52.84c.28.12-.02.62.05.99.09.48.57,1.4.71,1.95.31.2,1.86-1.02,2.18-.04.43,1.33-2.11,2.99-3.36,1.13-.94-1.4-.39-2.78.43-4.04Z"/>
      <path d="M196.77,55.65c-.38.75.04,1.26.26,1.91.14.42-.09,1.02.55.96.53-.05.99-.83,1.72-.24,1.04.84-1.11,2.83-2.55,1.98-1.54-.91-1.31-3.18-.29-4.42.08-.1-.01-.26.31-.18Z"/>
      <path d="M184.72,57.44c.89-.02,1.79-1.1,2.33.17-.16,1.45-2.13,2.4-3.21,1.25-1.23-1.31-.82-3.19.31-4.41.05.4-.11.73-.03,1.16.09.51.57,1.23.6,1.84Z"/>
      <path class="cls-2" d="M251.86,163.34l12.08-.24c.26,0,.31-.35.06-.41l-5.34-1.45h-.02c-3.05-1.16-3.8-1.92-5.06-4.74v-.02s-1.73-4.92-1.73-4.92c-.08-.23-.45-.17-.44.07l.23,11.5c0,.12.11.21.23.21Z"/>
      <path class="cls-8" d="M322.22,177.75c-5.72-1.55-14.68-1.78-20.76-2.17-5.43-.34-10.91-.45-16.32-.84l4.13-1.24c2.53-1.03,5.95-2.72,5.87-5.89l17.45-.98.27-27.57c-1.64-4.18-3.85-8.41-7.42-11.24.99-.95,1.7-2.54,1.81-3.91.11-1.43.04-5-.44-6.27-.52-1.36-2.75-3.47-4.25-3.43l-4.47.11c-.23-5.88-.18-11.78-.43-17.67-.17-4.02.07-8.21-2.11-11.74-2.09-3.38-5.04-5.04-8.89-5.75-6.95-1.26-14.07-1.96-21.07-2.83l-40.43,5.28c-.3-.06-.59-3.46-.88-3.97l4.26-.11-10.84-14.13-14.65-5.34c.33-4.98-5.91-9.55-9.49-4.76-.46.62-.7,1.64-.98,2.02-.26.34-1.9-.2-2.38-.25-1.46-5.11-7.39-6.68-10.07-1.53l-2.78-.2c-.4-1.29-1.13-2.46-2.16-3.34l-2.87-12.74c-.33-.45-3.67-1.07-3.67-1.36l15.01-13.37.07-.34c-.35-1.09-.83-9.03-1.2-9.33L133.27,0l-.97.42-20.24,12.28.12,4.88c-.72-.27-1.44-.55-2.19-.73-1.47-.36-3.28-.75-4.71-.13-.76.33-1.09,1.17-1.97,1.22-1.3.07-3.12-1.25-4.58-1.39-2.87-.26-4.19.81-5.5,3.19-3.87,7.02-6.83,14.82-10.86,21.74L0,90.08l1.85,77.38,3.23-.08c.79,1.42,1.32,2.95,2.18,4.34.92,1.47,2.09,2.71,3.32,3.92h-.07c.46.39.79.84,1.07,1.32,1.79,1.71,3.39,3.18,5.77,4.29,3.45.86,7.4.65,10.65.8,6.84.3,13.52,1.49,20.4,1.14,5.9-.3,11.66-.88,16.76-4.06,4.32-2.69,8.47-7.07,9.08-12.34.11-.91.62-1.84,1.35-2.45.8-.71,1.89-1.02,2.89-.54.79.16,1.5.59,1.91,1.3,1.55.76,2.99,1.73,4.65,2.2,1,.29,2.03.48,3.06.66.05,0,.1.01.14.02,1.58-.08,3.15-.2,4.73-.25,7.26-.23,14.55-.04,21.82-.24,2.56-.07,5.12-.11,7.67-.13,5.44-.6,11.14-.4,16.43-.52,3.96-.09,7.91-.34,11.87-.37,4.06-.03,8.1.37,12.16.48,4.1.11,8.22-.07,12.28-.68,1.88-.28,3.76-.59,5.67-.56,1.87.02,3.82.42,5.29,1.3.32.16.62.38.88.64.73.64,1.24,1.47,1.44,2.5,0,0,0,.01,0,.02.47,1.53.96,3.18,1.58,4.78,3.54,6.38,11.84,8.72,18.97,9.53.16.02.32.05.47.08,5.83-.07,11.66-.14,17.49-.22.23,0,.61-.1.76.12l34.23-.85.46-.16c13.21-.34,26.44-.92,39.59-1.8,6.11-.41,14.14-.52,19.97-2.07,1.99-.53,2.71-1.12.23-1.79ZM305.26,131.83c1.48,1.63,2.8,3.86,3.59,5.89l-9.63.1c1.05-.81,1.56-1.73,2.07-2.93l2.02,1.25c-.75-2.43-2.11-4.51-4.27-5.87.7.15,2.31-.89,2.78-.86.97.06,2.79,1.7,3.45,2.43ZM306.42,142.18c1.08,0,2.25.21,3.37.06l-.28,20.47c0,.63-.51,1.15-1.14,1.18l-59.32,3.05c-.68.04-1.26-.5-1.28-1.18l-.57-23.08c.21.1.38.13.61.13,19.53,0,39.07-.75,58.6-.64ZM302.18,124c-.11-.11-.94.49-1.19.55-1.74.41-1.71-.9-2.31-2.03-.22-.41-.85-1.03-.86-1.37-.03-.89,1.74-1.02,2.39-.94.44.05.68.36,1.05.31-.72-1.07-1.74-1.7-3.06-1.51l-.04-1.65,3.92-.1c.75-.02,1.75,1.05,1.94,1.77.26.96.3,4.39.02,5.33-.18.62-1.56,2.52-2.13,2.53l-4.06.1-.03-1.1,3.51-.09c.54-.01.93-1.34.85-1.81ZM202.27,61.21l.31-.05,13.07,4.76,6.77,8.62c-4.89-1.59-9.61-4.03-14.7-4.93l-6.31-6.92v-.27s.87-1.2.87-1.2ZM222.06,82.16l-1.37.81-.11-4.26h.81s.66,3.45.66,3.45ZM215.76,83.92l-4.81.12.56-7.99,2.57.29,1.69,7.58ZM210.34,75.94l-.76,8.13-3.14.06-2.16-8.73,6.07.54ZM195.48,53.82c.3-.26.65-.53,1.05-.61,4.69-.98,6.39,6.85,2.76,8.66-3.99,1.99-7.19-5.13-3.81-8.05ZM201.8,75.11l2.41,8.96-13.47.33,1.9-10.23,9.16.94ZM190.23,58.28l2.14.35.66,1.91-3.18-.47.37-1.79ZM190.9,74.01l-1.92,10.13-.16.25h-2.48s2.62-10.44,2.62-10.44l1.95.07ZM184.26,52.14c2.46-.41,4.29,2.45,4.42,4.61.14,2.47-1.73,5.33-4.47,4.26-3.52-1.38-3.72-8.24.06-8.87ZM183.46,124.05l-12.58.31c-.5.01-1.89.71-1.68,1.42l11.48-.28c.57-.01.93.83.79,1.36l-14.92.37c-1.06-1.1-1.81-2.49-2.09-4.01l-.36-15.24c.11-.36,2.95-.89,3.48-.98,1.8-.29,3.54-.31,5.34-.43.17-.01.51.09.48-.15-3.1-.47-6.23-.45-9.36-.32-.18-1.1,1.68-.87,2.42-1.26l6.88-1.03c-3.09-.66-6.26-.76-9.35-.04l-.35-14.23c.37-.46.95-.77,1.49-1,3.31-1.43,13.32-1.87,16.34.18.21.15.88.68.89.9l.2,8.18c-5.05-1.39-10.8-1.57-15.5,1.02l-1.37.91c5.6-1.33,11.43-1.02,17.05,0l.22,8.65c.5-.17,2.9.27,2.91.82l.21,8.59-2.75.07.15,6.18ZM140.55,102.34c.21-3.31,0-6.7.52-9.98.21,1.61.46,3.25.6,4.87.4,4.81.38,9.62.49,14.42.06,2.54-.18,9.09.76,11.06.47.99,2.1,2.42,3.22,2.4l16.43-.41v1.15s-.31.23-.31.23l-15.53.38c-3.15-.19-5.42-2.43-5.72-5.56-.57-6,.02-12.51-.46-18.57ZM146.28,86.6c1.27.15,2.6.23,3.63-.64.07,2.16-.97,4.06-3.16,4.58-4.9,1.16-4.83-3.77-4.06-7.15.21-.16,1.68.95,2.05,1.02.9.18,2.15-.12,3.06-.18l-2.01,2.18c.14.21.28.17.48.2ZM151.7,85.64l3.05-.32,4.16,2.61-7.12,1.28-.09-3.57ZM153.55,82.63c-2.09-.15-9.4.31-10.62-1.54l-.57-17.89c1.23-.77,2.71-.87,4.12-.95.41-.99,1.21-1.58,2.32-1.44,3.71.83,7.65,1.36,11.3,2.37,1.48.41,3.06.81,1.43,2.49-.2,6.64.29,13.38.33,20.06-.07.65,2.52,1.47,2.52,1.72l-.8.85-10.04-5.68ZM161.28,58.59c-3.67.4-7.58,1.49-11.25,1.38-1.15-.04-1.99-.36-3.27-.16-.99.16-1.62.82-2.55,1.07-.69.19-1.36.12-2.07.45-1.04.48-1.85,2.05-1.98,3.14l-1.37.18-.13-5.36c3.3-1.65,6.94-2.61,10.6-3.13,5.76-.82,11.75-.8,17.56-.57l.21.21.64,2.44c-2.11-.02-4.28.14-6.39.37ZM177.35,129.97c1.72,1.36,3.53,2.64,5.12,4.14l-43.31,1.07-.11-4.26,38.29-.95ZM184.82,73.41l-2.9,11.06c-2.19.35-4.24-.42-5.2-2.47l-2.51-9.56,10.62.97ZM177.54,56.55l2.06.13.45,1.99-3.03-.34.52-1.79ZM178.73,66.27c-2.11.01-4.15.76-6.24.98-.79.08-2.17.22-2.9-.05-.61-.23-2.03-2.99-3.04-3.72-1.02-.74-2.83-.44-1.92-2.49.41-.93,2.65-1.72,3.58-2.15,1.21,2.18,3.94,3.16,6.26,2.24l4.25,5.19ZM174.42,59.01c-4.02,3.03-8.05-4.74-4.24-7.79.29-.23.61-.47.98-.55,4.36-.92,6.25,6.08,3.26,8.34ZM16.21,167.88c-4.75.19-6.45-8.29-6.39-11.82.05-3.25,1.42-10.19,5.49-10.62,4.52-.48,6.35,6.52,6.61,9.9.28,3.72-.68,12.34-5.7,12.54ZM27.63,172.73c-.15.12-.88.69-1.01.58,1.27-1.57,2.31-3.36,2.89-5.3l-2.81,3.09c.38-1.02,1.23-1.9,1.23-3.06-.69,1.08-1.43,2.37-2.4,3.22-.13.11-.77.67-.88.57.55-1.03,1.38-2.3,1.7-3.41.02-.07.03-.23-.07-.2l-1.88,2.11c-.1.02-.09-.13-.07-.2.17-.58.7-1.48.94-2.19,2.9-8.49,2.11-19.79-3.32-27.11l1.9,1.46,1.77,2.3c-.1-1.52-1-2.73-1.59-4.04-.06-.12-.31-.34-.1-.45,1.34,1.31,2.55,2.82,3.48,4.45.26.02.1-.28.06-.42-.07-.27-.21-.67-.31-.94-.36-.96-.93-1.81-1.37-2.72,1.48,1.13,2.46,2.78,3.48,4.31l-.26-1.56-.8-2.12c2.32,2.78,3.57,6.48,4.15,10.02,1.01,6.14.44,17.32-4.74,21.62ZM30.59,139.31l-2.53-1.93,6.26-.15,1.61,1.66c-.97,1.04-1.67,2.34-2.03,3.71l-3.31-3.29ZM47.3,158.7c-.29,3.86-2.98,12.49-8.43,9.14-5.81-3.56-6.17-19.03-.34-22.72.32-.2.87-.5,1.23-.57,6.35-1.25,7.85,9.9,7.54,14.15ZM58.07,164.12c-.59,2.88-1.76,5.99-3.83,8.1.44-.99.96-1.95,1.3-2.99.36-1.09.64-2.24.74-3.39l-3.49,6.14c0-.58.49-1.15.74-1.71.65-1.49,1.2-3.04,1.37-4.66l-3.5,6c-.21-.1.03-.33.08-.46.69-1.75,1.59-3.43,1.77-5.36l-2.58,4.05-.47.42c.86-2.01,1.56-4.08,1.98-6.24,1.14-5.86.83-12.69-1.04-18.37-.41-1.24-1.11-2.38-1.5-3.5-.02-.07-.04-.22.06-.2.78.5,1.32,1.82,1.92,2.36.17.15.17.01.14-.14-.1-.52-.59-1.72-.82-2.25-.31-.7-.78-1.34-1.08-2.04,1.58,1.26,2.69,2.99,3.9,4.58,0-.68-.33-1.55-.61-2.18-.34-.77-.86-1.42-1.22-2.17,1.39,1.04,2.25,2.62,3.4,3.9-.34-2.57-2.22-4.52-3.87-6.37.09-.09,1.14.75,1.26.86,6.09,5.53,6.9,18.07,5.35,25.63ZM69.17,159.38c-.51,4.94-2.13,10.73-6.24,13.86l2.85-4.74.57-1.81-2.98,4.2-.68.56c-.21-.1.02-.33.09-.45.71-1.35,1.42-2.69,2.07-4.07.02-.41-.16-.1-.25.03-.89,1.25-1.66,2.66-2.82,3.69.6-1.44,1.54-2.73,1.82-4.31-.87,1.08-1.53,2.33-2.39,3.42-.15.19-1.16,1.5-1.34,1.34.69-1.11,1.44-2.25,1.91-3.49.19-.5.44-1.17.37-1.66l-.94.98c-.1.02-.09-.13-.07-.2.23-.79.78-1.77,1.04-2.64,1.6-5.37,1.23-12.33-.54-17.63-.37-1.09-1.01-2.11-1.35-3.1-.02-.07-.04-.22.06-.2l1.64,2.16c.25.03.12-.31.09-.45-.16-.72-.61-1.49-.87-2.19l-2.13-3.61c1.95,1.6,3.58,3.75,4.82,5.93.25.03.11-.29.07-.42-.64-2.04-2.28-3.84-3.52-5.54.26-.07.33.14.49.26,1.61,1.29,3.46,3.81,4.44,5.63.16.3.21.28.17-.04-.08-.64-.58-1.73-.86-2.34-1.17-2.53-2.84-4.64-4.86-6.52.83.05,1.82.89,2.45,1.45,5.81,5.17,7.69,14.43,6.92,21.89ZM7.96,133.22l-3.71,9.16-1.25-50.51,77.01-45.43-8.58,17.81-12.12,6.65,1.25,12.33,2.45-1.16-3.46,7.51-11.67,6.62,1.27,12.21,3.05-1.69-.69-8.14,5.23-2.88-1.86,4.2-1.63,7.71L96.5,20.18c1.3-1.54,3.76.3,5.3.62,2.14.45,3.47-.06,5.11-1.42,2.96.38,5.69,1.64,8.4,2.81l-.19-7.77,17.66-10.71.96-.41,45.92,11.99.76,5.97-47.63-12.29-10.4,10.5.24,9.83,4.19-2.99-.07-2.75,19.53,5.29-17.48-2.87-.18.82,40.7,12.6.42.41,1.94,9.03c-2.17.03-3.72,1.72-4.45,3.62-.26.17-2.94-.12-3.51-.13-6.52-.09-13.5.19-19.84,1.8-1.82.46-3.62,1.05-5.32,1.85l-.23-9.41c-.11-4.43-6.45-10.19-10.28-11.76-4.66-1.91-7.86,3.79-8.1,7.7-.24,3.96,1.61,6.58,3.67,9.65.28,11.21.24,22.41.55,33.62l-6.33-.69-3.29-54.29,3.42,4.8-2.54-10.66-6.44-2.04,5.32,61.89L7.96,133.22ZM68.5,70.37l-4.97,10.3-.53-7.28,5.5-3.02ZM126.78,51.25c-.19-1.19-3.28-3.94-3.29-5.42,0-.34.71-1.28.89-1.69.7-1.58,1.1-3.26,1.25-4.98.09-1.05-.45-2.21,1.22-1.53,2.82,1.14,7.9,5.59,8.33,8.74l1.94,76.91c-.87-.13-4.11.11-4.5.09-1.56-.07-3.34.08-4.88.26-.05-6.48-.26-12.97-.35-19.46-.23-16.98-.57-34.02-.56-51,0-.55.03-1.43-.05-1.94ZM73.15,135.72c-.1-.08,1.12-2.09,1.52-2.11l49.75-19.1c.2,3.98.11,7.76.97,11.67.46,2.09,1.33,4.07,1.74,6.14-.76-.2-1.74-.07-2.51.1-.68.15-1.29.63-1.8.7-1.02.15-2.37.01-3.45.08-13.49.79-27.02,1.57-40.52,2.25-1.91.1-3.81.02-5.71.27ZM128.92,165.49c-.39-.16-1.89-1.5-2.26-1.87-6.85-6.92-4.92-16.67.52-23.74l-8.59.21c-1.59,1.78-3.89,5.17-4.01,7.59,0,.16-.02.3.14.14.55-.55,1.16-1.71,1.73-2.38.31-.36,1.72-1.9,2.08-1.91l4.61-.11c-1.38,2.15-2.68,4.6-2.71,7.22l-6.32.16c-.42,4.52.72,9.42,3.89,12.77.57.61,1.27,1.06,1.83,1.67l-2.96.07c-.21,0-2.04-1.65-2.32-1.93-4.07-4.18-5.19-9.74-3.89-15.38.18-.78.51-1.5.84-2.22-.23-.23-2.21,1.79-2.42,2.06-.69.87-1.23,1.93-1.58,2.99l-19.39.48c-1.24,5.93,1.94,10.92,6.14,14.7l-3.92.1c-2.04-2.19-3.91-4.75-4.8-7.65-1.15-3.72-.75-8.11.81-11.64-1.54.98-2.72,2.67-3.05,4.48l-3.99.1c-.82,5.17,1.32,10.49,5.5,13.61.56.42,1.23.72,1.75,1.2-4.3.26-7.36-3.16-8.39-7.05-1.68-6.36-.16-14.48,6.07-17.77,1.66-.88,2.18-.67,3.95-.8,12.09-.93,24.42-.98,36.56-1.59.46-.02,2.89-.39,3.08-.21.06,1.25.7,2.04,1.8,2.56l.05.19c-4.61,6.84-6.11,16.63.97,22.43-.27.42-1.24,1.74-1.73,1.54ZM129.73,159.48c3.84-3.69,5.19-9.3,5.7-14.44,2.01,2.67,2.28,6.36,1.68,9.59-.3,1.6-.87,3.4-1.81,4.72l-5.57.14ZM186.89,163.08l-.11.16-26.74,1.28c-.32,0-.63-.13-.95-.13-5.11.05-10.19-.05-15.28-.16l-11.49-.27-.07-2.95.2-.21,29.9-.74-.39-15.67-24.75.61-.05-2.2c-.86-.08-2,.19-2.82.07-1.25-.18-3.85-2.12-4.11-3.44.12-4.14-.63-8.81-.36-12.89.08-1.25,5.13-1.01,7.29-1.56l.32,12.89c.12,1.34,1.34,2.66,2.4,3.41,1.32.92,3.49.24,5.07.35.27-1.21.67-2.62,1.73-3.39.14-.1.92-.51,1.01-.52l23.58-.58c-.42.94-.71,2.01-.75,3.04l-17.99,1.2,15,.81,4.55,16.51,13.06-.32c-.81-7.9-.16-15.87,2.88-23.22,4.64-11.22,15.21-20.83,27.71-21.81,6.96-.55,14.53.26,20.77,3.42-.62,2.76-.41,5.29,1.92,7.15,2.87,2.29,8.23,2.61,11.82,3.66,4.68,1.38,9.34,3.74,12.33,7.6l-.23-11.68s0-.07,0-.11c0-.37,0-.73,0-1.1,0-.55,0-1.1-.01-1.65-.01-.64-.03-1.29-.05-1.93-.01-.3-.02-.6-.04-.91-.02-.51-.04-1.02-.09-1.53-.05-.53-.1-1.05-.15-1.58-.03-.35-.07-.72-.27-1.02-.15-.23-.38-.4-.62-.53-.12-.07-.25-.13-.36-.22-.13-.1-.26-.2-.39-.3-.02-.02-.15-.09-.15-.12l-.19-7.56-3.71,5.87-.59-23.58c.16-1.57.25-3.15.85-4.62-1.9.5-3.26,2.1-4.17,3.75l-63.8,6.87c.79-2.21,2.87-4.38,5.21-4.9,9.43-1.24,18.92-2.07,28.36-3.22,15.08-1.83,30.12-4.34,45.24-5.64,6.21,1.15,12.7,1.55,18.89,2.72,10,1.9,8.02,11.85,8.3,19.63.4,11.29.76,22.63.99,33.94-.01.73-.38,1.37-.78,1.94-.25.16-3.46.17-4.06.18-5.52.04-11.12.11-16.64-.01-1.92-.04-2.54.35-4.34-.65-1.53-.85-2.7-2.08-3.56-3.59l-1.01-2.68.15,5.98c0,.23.48.75.51,1.02l-23.43.14c-2.28-6.85-7.23-12.72-13.27-16.59-8.77-5.62-19.04-5.9-27.51.46-12.26,9.21-16.68,26.36-14.78,41.11ZM211.68,104.92c-2.57-.22-6.47.24-9.05.66-1.45.24-2.9.6-4.33.91,3.51-2.89,8.07-4.95,12.47-6.18,11.48-3.21,24.15-2.09,35.54.87.04.24-.31.14-.48.15-2.83.18-6.04.44-8.63,1.72-.13.07-.32.09-.33.29,5.63.73,11.16,3.67,14.92,7.88-.88-.32-1.68-.84-2.55-1.2-2.8-1.15-6.2-1.89-9.2-2.32-14.9-2.14-28.99.9-42.26,7.63-1.08.55-2.11,1.21-3.21,1.71,4.39-5.63,10.75-9.8,17.59-11.85-.06-.25-.28-.25-.48-.27ZM260.07,114.29c1.59.07,1.39,6.53,1.39,9.23l-18.49.43c-.75.02-2.39-.88-2.99-1.37-3.71-3.03-1.15-7.59,2.89-8.25,4.59.12,12.65-.24,17.21-.04ZM229.52,156.26c-.35,8.99-7.69,19.36-17.73,15.52-14.09-5.39-12.74-32.91,2.65-34.57,10.07-1.09,15.41,10.52,15.08,19.04ZM239.49,175.27l-1.76,1.35c2.13-2.59,4.05-5.57,4.46-8.98l-1.26,2.29c-1.37,2.24-2.98,4.35-5,6.05l1.97-2.62c1.25-1.83,2.69-4.62,2.99-6.82.02-.15.13-.48-.11-.44-1.38,2.77-3.13,5.57-5.1,7.97-.38.46-1.06,1.32-1.47,1.68-.15.13-.21.34-.47.29l4.12-6.75,1.67-3.78c0-.36-.01-.3-.17-.03-.8,1.32-1.77,2.56-2.76,3.75,1.74-3.81,2.86-7.91,3.14-12.11,1.08-16.42-10.63-33.39-28.38-31.83-.82.07-1.68.36-2.48.46-.15.02-.49.14-.47-.11.81-.33,1.61-.71,2.45-.96,11.99-3.56,25.32,7.45,29.74,17.97l3.42,1.9.62,23.68c-1.23,2.66-3.11,4.97-5.16,7.04ZM245.08,173.54l2.21-3.47,12.67-.59c.57,1.49,1.82,2.59,3.18,3.36l2.74,1.28-20.79-.59Z"/>
      <path d="M27.42,144.55c.26.02.1-.28.06-.42-.07-.27-.21-.67-.31-.94-.36-.96-.93-1.81-1.37-2.72,1.48,1.13,2.46,2.78,3.48,4.31l-.26-1.56-.8-2.12c2.32,2.78,3.57,6.48,4.15,10.02,1.01,6.14.44,17.32-4.74,21.62-.15.12-.88.69-1.01.58,1.27-1.57,2.31-3.36,2.89-5.3l-2.81,3.09c.38-1.02,1.23-1.9,1.23-3.06-.69,1.08-1.43,2.37-2.4,3.22-.13.11-.77.67-.88.57.55-1.03,1.38-2.3,1.7-3.41.02-.07.03-.23-.07-.2l-1.88,2.11c-.1.02-.09-.13-.07-.2.17-.58.7-1.48.94-2.19,2.9-8.49,2.11-19.79-3.32-27.11l1.9,1.46,1.77,2.3c-.1-1.52-1-2.73-1.59-4.04-.06-.12-.31-.34-.1-.46,1.34,1.31,2.55,2.82,3.48,4.45Z"/>
      <path d="M54.24,172.22c.44-.99.96-1.95,1.3-2.99.36-1.09.64-2.24.74-3.39l-3.49,6.14c0-.58.49-1.15.74-1.71.65-1.49,1.2-3.04,1.37-4.66l-3.5,6c-.21-.1.03-.33.08-.46.69-1.75,1.59-3.43,1.77-5.36l-2.58,4.05-.47.42c.86-2.01,1.56-4.08,1.98-6.24,1.14-5.86.83-12.69-1.04-18.37-.41-1.24-1.11-2.38-1.5-3.5-.02-.07-.04-.22.06-.2.78.5,1.32,1.82,1.92,2.36.17.15.17.01.14-.14-.1-.52-.59-1.72-.82-2.25-.31-.7-.78-1.34-1.08-2.04,1.58,1.26,2.69,2.99,3.9,4.58,0-.68-.33-1.55-.61-2.18-.34-.77-.86-1.42-1.22-2.17,1.39,1.04,2.25,2.62,3.4,3.9-.34-2.57-2.22-4.52-3.87-6.37.09-.09,1.14.75,1.26.86,6.09,5.53,6.9,18.07,5.35,25.63-.59,2.88-1.76,5.99-3.83,8.1Z"/>
    </g>
  </g>
</svg>