<?xml version="1.0" encoding="UTF-8"?>
<svg id="Layer_2" data-name="Layer 2" xmlns="http://www.w3.org/2000/svg" xmlns:xlink="http://www.w3.org/1999/xlink" viewBox="0 0 528.5 407.36">
  <defs>
    <style>
      .cls-1 {
        fill: none;
        opacity: .81;
        stroke-width: 3px;
      }

      .cls-1, .cls-2 {
        stroke: #010101;
        stroke-miterlimit: 10;
      }

      .cls-2 {
        fill: #0e4f79;
        stroke-width: 10px;
      }

      .cls-3 {
        opacity: .78;
      }

      .cls-3, .cls-4, .cls-5 {
        fill: #60605f;
      }

      .cls-6 {
        fill: #fff;
      }

      .cls-7 {
        fill: #eb2c3b;
      }

      .cls-8 {
        fill: #f1bb1b;
      }

      .cls-5 {
        opacity: .97;
      }

      .cls-9 {
        fill: #f0efc9;
      }

      .cls-10 {
        fill: #010101;
      }

      .cls-11 {
        opacity: .64;
      }

      .cls-12 {
        clip-path: url(#clippath);
      }
    </style>
    <clipPath id="clippath">
      <ellipse class="cls-1" cx="264" cy="250.71" rx="259.14" ry="150.11"/>
    </clipPath>
  </defs>
  <g id="Layer_1-2" data-name="Layer 1">
    <path class="cls-8" d="M270.35,50.67c4.36-.92,6.25,6.08,3.26,8.34-4.02,3.03-8.05-4.74-4.24-7.79.29-.23.61-.47.98-.55ZM270.44,52.84c-.82,1.26-1.37,2.65-.43,4.04,1.25,1.86,3.8.2,3.36-1.13-.32-.98-1.87.24-2.18.04-.13-.55-.61-1.47-.71-1.95-.07-.37.23-.87-.05-.99Z"/>
    <path class="cls-8" d="M295.73,53.21c4.69-.98,6.39,6.85,2.76,8.66-3.99,1.99-7.19-5.13-3.81-8.05.3-.26.65-.53,1.05-.61ZM295.96,55.65c-.32-.08-.23.08-.31.18-1.02,1.24-1.24,3.51.29,4.42,1.44.85,3.59-1.14,2.55-1.98-.73-.59-1.19.2-1.72.24-.65.06-.41-.54-.55-.96-.22-.65-.64-1.16-.26-1.91Z"/>
    <path class="cls-8" d="M283.46,52.14c2.46-.41,4.29,2.45,4.42,4.61.14,2.47-1.73,5.33-4.47,4.26-3.52-1.38-3.72-8.24.06-8.87ZM283.91,57.44c-.03-.61-.51-1.33-.6-1.84-.07-.43.09-.76.03-1.16-1.12,1.23-1.54,3.1-.31,4.41,1.08,1.16,3.05.21,3.21-1.25-.55-1.26-1.44-.19-2.33-.17Z"/>
    <path d="M202.84,50.66l-8.35,4.61.69,8.14-2.93,1.67c-.3.05-.17-.03-.2-.2-.6-2.75-.66-6.57-.93-9.46-.08-.85-.21-1.74-.35-2.59l11.96-6.57.11,4.4Z"/>
    <path d="M270.44,52.84c.28.12-.02.62.05.99.09.48.57,1.4.71,1.95.31.2,1.86-1.02,2.18-.04.43,1.33-2.11,2.99-3.36,1.13-.94-1.4-.39-2.78.43-4.04Z"/>
    <path d="M295.96,55.65c-.38.75.04,1.26.26,1.91.14.42-.09,1.02.55.96.53-.05.99-.83,1.72-.24,1.04.84-1.11,2.83-2.55,1.98-1.54-.91-1.31-3.18-.29-4.42.08-.1-.01-.26.31-.18Z"/>
    <path d="M283.91,57.44c.89-.02,1.79-1.1,2.33.17-.16,1.45-2.13,2.4-3.21,1.25-1.23-1.31-.82-3.19.31-4.41.05.4-.11.73-.03,1.16.09.51.57,1.23.6,1.84Z"/>
    <g>
      <ellipse class="cls-2" cx="264.25" cy="252.25" rx="259.25" ry="150.11"/>
      <g class="cls-11">
        <g class="cls-12">
          <line class="cls-1" x1="-30.46" y1="132.91" x2="613" y2="132.91"/>
          <line class="cls-1" x1="-30.47" y1="146.86" x2="612.99" y2="146.86"/>
          <line class="cls-1" x1="-30.47" y1="159.78" x2="612.99" y2="159.78"/>
          <line class="cls-1" x1="-30.47" y1="76.44" x2="612.99" y2="76.44"/>
          <line class="cls-1" x1="-30.47" y1="96.85" x2="612.99" y2="96.85"/>
          <line class="cls-1" x1="-30.47" y1="109.44" x2="612.99" y2="109.44"/>
          <line class="cls-1" x1="-30.47" y1="171.32" x2="612.99" y2="171.32"/>
          <line class="cls-1" x1="-30.47" y1="184.73" x2="612.99" y2="184.73"/>
          <line class="cls-1" x1="-30.47" y1="403.02" x2="612.99" y2="403.02"/>
          <line class="cls-1" x1="-71.75" y1="329.01" x2="412.64" y2="329.01"/>
          <line class="cls-1" x1="-26.76" y1="353.52" x2="616.7" y2="353.52"/>
          <line class="cls-1" x1="-26.76" y1="365.78" x2="616.7" y2="365.78"/>
          <line class="cls-1" x1="-33.04" y1="378.03" x2="610.42" y2="378.03"/>
          <line class="cls-1" x1="22.73" y1="120.63" x2="666.18" y2="120.63"/>
          <line class="cls-1" x1="-95.77" y1="390.29" x2="547.69" y2="390.29"/>
          <line class="cls-1" x1="457.76" y1="341.26" x2="576.96" y2="341.26"/>
          <line class="cls-1" x1="70.21" y1="194.18" x2="-79.2" y2="194.18"/>
          <line class="cls-1" x1="65.48" y1="206.43" x2="-87.58" y2="206.43"/>
          <line class="cls-1" x1="65.48" y1="230.95" x2="-97.28" y2="230.95"/>
          <line class="cls-1" x1="64.67" y1="243.2" x2="-98.09" y2="243.2"/>
          <line class="cls-1" x1="64.67" y1="256.12" x2="-98.09" y2="256.12"/>
          <line class="cls-1" x1="65.48" y1="218.69" x2="-87.58" y2="218.69"/>
          <line class="cls-1" x1="65.48" y1="267.72" x2="-97.28" y2="267.72"/>
          <line class="cls-1" x1="65.48" y1="279.98" x2="-93.68" y2="279.98"/>
          <line class="cls-1" x1="65.48" y1="292.23" x2="-90.63" y2="292.23"/>
          <line class="cls-1" x1="65.48" y1="304.49" x2="-85.61" y2="304.49"/>
          <line class="cls-1" x1="70.21" y1="316.75" x2="-88.01" y2="316.75"/>
          <line class="cls-1" x1="463.34" y1="206.43" x2="605.35" y2="206.43"/>
          <line class="cls-1" x1="463.34" y1="230.95" x2="616.27" y2="230.95"/>
          <line class="cls-1" x1="463.34" y1="243.2" x2="621.28" y2="243.2"/>
          <line class="cls-1" x1="463.34" y1="255.46" x2="622.12" y2="255.46"/>
          <line class="cls-1" x1="463.34" y1="267.72" x2="622.12" y2="267.72"/>
          <line class="cls-1" x1="463.34" y1="218.69" x2="612.26" y2="218.69"/>
          <line class="cls-1" x1="463.34" y1="279.98" x2="621.41" y2="279.98"/>
          <line class="cls-1" x1="463.34" y1="292.23" x2="617.89" y2="292.23"/>
          <line class="cls-1" x1="463.34" y1="304.49" x2="614.87" y2="304.49"/>
          <line class="cls-1" x1="463.34" y1="316.75" x2="610.15" y2="316.75"/>
          <line class="cls-1" x1="459.59" y1="329.01" x2="610.38" y2="329.01"/>
          <line class="cls-1" x1="-71.75" y1="341.26" x2="412.64" y2="341.26"/>
          <line class="cls-1" x1="459.34" y1="194.18" x2="596.72" y2="194.18"/>
        </g>
        <ellipse class="cls-1" cx="264" cy="250.71" rx="259.14" ry="150.11"/>
      </g>
      <g>
        <path class="cls-9" d="M85.13,301.96c0,1.66.7,2.39,2.1,2.39s2.1-.74,2.1-2.39v-17.48c0-29.8-18.37-34.22-18.37-69.54v-9.57c0-12.51,5.77-18.77,16.79-18.77s16.79,6.25,16.79,18.77v27.41h-14.17v-29.8c0-1.66-.7-2.39-2.1-2.39s-2.1.74-2.1,2.39v13.8c0,29.8,18.37,34.22,18.37,69.54v13.25c0,12.51-5.77,18.77-16.79,18.77s-16.79-6.25-16.79-18.77v-31.28h14.17v33.67Z"/>
        <path class="cls-9" d="M123.79,316.86h-15.22v-128.78h17.67c8.05,0,16.97,2.76,16.97,16.93v42.87c0,14.17-8.92,16.93-16.97,16.93h-2.45v52.07ZM123.79,202.06v48.75h2.1c1.4,0,2.1-.74,2.1-2.39v-43.97c0-1.66-.7-2.39-2.1-2.39h-2.1Z"/>
        <path class="cls-9" d="M162.1,302.88h11.37v13.98h-26.59v-128.78h26.24v13.98h-11.02v40.66h8.92v13.98h-8.92v46.18Z"/>
        <path class="cls-9" d="M192.19,302.88h11.37v13.98h-26.59v-128.78h26.24v13.98h-11.02v40.66h8.92v13.98h-8.92v46.18Z"/>
        <path class="cls-9" d="M207.06,188.08h17.67c8.05,0,16.97,2.76,16.97,16.93v94.93c0,14.17-8.92,16.93-16.97,16.93h-17.67v-128.78ZM222.28,202.06v100.82h2.1c1.4,0,2.1-.74,2.1-2.39v-96.04c0-1.66-.7-2.39-2.1-2.39h-2.1Z"/>
      </g>
      <g>
        <path class="cls-9" d="M267.97,316.87h-15.22v-128.78h17.67c8.05,0,16.97,2.76,16.97,16.93v42.87c0,14.17-8.92,16.93-16.97,16.93h-2.45v52.06ZM267.97,202.07v48.75h2.1c1.4,0,2.1-.74,2.1-2.39v-43.97c0-1.66-.7-2.39-2.1-2.39h-2.1Z"/>
        <path class="cls-9" d="M307.68,303.07h-7.35l-.87,13.8h-14l9.45-128.78h19.59l9.62,128.78h-15.39l-1.05-13.8ZM301.38,289.09h5.42c-1.57-23.18-2.1-44.52-2.8-62-.7,17.48-1.05,38.82-2.62,62Z"/>
        <path class="cls-9" d="M337.94,215.13c1.57,20.97,1.92,38.27,2.45,53.35.52-15.09.88-32.38,2.45-53.35l1.92-27.04h14l-9.45,128.78h-19.07l-9.62-128.78h15.39l1.92,27.04Z"/>
        <path class="cls-9" d="M361.21,188.09h15.22v128.78h-15.22v-128.78Z"/>
        <path class="cls-9" d="M418.59,188.09v128.78h-16.62l-5.42-42.13c-1.22-9.93-2.8-25.02-3.85-33.12.35,8.28,1.22,23.37,1.22,33.12v42.13h-12.95v-128.78h18.72l3.5,27.96c1.22,9.57,2.62,25.02,3.67,32.75-.17-7.91-1.22-23.37-1.22-33.12v-27.6h12.95Z"/>
        <path class="cls-9" d="M442.2,202.99c0-1.66-.7-2.39-2.1-2.39-1.57,0-2.1.74-2.1,2.39v98.98c0,1.66.7,2.39,2.1,2.39s2.1-.74,2.1-2.39v-44.52h-2.1v-13.98h16.62v73.41h-7.87l-1.22-4.23c-1.92,3.86-5.95,5.7-11.02,5.7-7.87,0-13.82-4.6-13.82-18.76v-94.2c0-12.51,5.77-18.77,16.79-18.77s16.79,6.25,16.79,18.77v33.85h-14.17v-36.24Z"/>
      </g>
      <path class="cls-4" d="M346.4,142.69c.21.1.38.13.61.13,19.53,0,39.07-.75,58.6-.64.7,0,1.44.09,2.18.11.66.02,1.18.56,1.17,1.22l-.26,19.19c0,.64-.51,1.16-1.15,1.19l-59.32,3.05c-.68.03-1.25-.5-1.27-1.18l-.57-23.09ZM406.71,161.27l-.27-11.05c0-.23-.33-.27-.39-.05l-1.32,4.72c-.99,2.71-1.61,3.46-4.26,4.67l-4.63,1.59c-.22.07-.16.39.07.39l10.8-.27ZM350.75,151.64l.29,11.6c0,.05.05.1.1.1l12-.3-2.98-.75c-3.14-.92-6.4-1.78-7.46-5.28l-1.76-5.4c-.04-.11-.19-.08-.19.03Z"/>
      <path class="cls-4" d="M178.51,151.38c-.82,5.17,1.32,10.49,5.5,13.61.56.42,1.23.72,1.75,1.2-4.3.26-7.36-3.16-8.39-7.05-1.68-6.36-.16-14.48,6.07-17.77,1.66-.88,2.18-.67,3.95-.8,12.09-.93,24.42-.98,36.56-1.59.46-.02,2.89-.39,3.08-.21.06,1.25.7,2.04,1.8,2.56l.05.19c-4.61,6.84-6.11,16.63.97,22.43-.27.42-1.24,1.74-1.73,1.54-.39-.16-1.89-1.5-2.26-1.87-6.85-6.92-4.92-16.67.52-23.74l-8.59.21c-1.59,1.78-3.89,5.17-4.01,7.59,0,.16-.02.3.14.14.55-.55,1.16-1.71,1.73-2.38.31-.36,1.72-1.9,2.08-1.91l4.61-.11c-1.38,2.15-2.68,4.6-2.71,7.22l-6.32.16c-.42,4.52.72,9.42,3.89,12.77.57.61,1.27,1.06,1.83,1.67l-2.96.07c-.21,0-2.04-1.65-2.32-1.93-4.07-4.18-5.19-9.74-3.89-15.38.18-.78.51-1.5.84-2.22-.23-.23-2.21,1.79-2.42,2.06-.69.87-1.23,1.93-1.58,2.99l-19.39.48c-1.24,5.93,1.94,10.92,6.14,14.7l-3.92.1c-2.04-2.19-3.91-4.75-4.8-7.65-1.15-3.72-.75-8.11.81-11.64-1.54.98-2.72,2.67-3.05,4.48l-3.99.1ZM215.37,140.15l-23.26,1.15c-2.25,2.05-3.49,4.99-4.16,7.91,1.13-1.64,2.37-3.27,3.98-4.47l19.6-.79c.4-.94,1.13-1.6,1.82-2.32l2.03-1.49ZM189.54,141.34l-4.61.11c-.1,0-1.39.88-1.6,1.03-1.92,1.38-3.66,3.52-4.21,5.85l2.91-2.93,4.28-.16c.59-1.62,2.09-2.68,3.23-3.91Z"/>
      <path class="cls-9" d="M313.64,137.21c10.07-1.09,15.41,10.52,15.08,19.04-.35,8.99-7.69,19.36-17.73,15.52-14.09-5.39-12.74-32.91,2.65-34.57ZM312.59,140.41c-1.38-1.28-3.23.88-1.84,2,1.41,1.13,3-.92,1.84-2ZM319.98,143.98c1.17-1.26-.52-3.43-2.08-2.18-1.65,1.32.66,3.7,2.08,2.18ZM312.32,166.22c10.16-.2,12.12-15.35,4.41-20.35-5.93-3.85-12.03,1.35-12.84,7.44-.03.4.16.09.25-.03.28-.4.51-.86.82-1.23,1.74-2.09,4.7-3.59,7.32-4.24l-2.09,1.84c-2.14,2.79-1.58,7.6,1.91,9,1.85.74,3.76.47,5.69.37-.51,1.84-1.57,3.66-2.9,5.02-.77.79-1.8,1.39-2.56,2.19ZM304.75,145.39c-1.37.32-.8,2.48.68,1.99,1.1-.36.71-2.32-.68-1.99ZM323.35,146.59c-2.23.18-1.98,3.51.19,3.41,2.35-.11,2.09-3.59-.19-3.41ZM324.92,154.68c-2.71.18-2.5,4.25.2,4.16,2.73-.09,2.5-4.34-.2-4.16ZM322.9,161.45c-2.53.35-1.18,4.36,1.06,3.03,1.6-.95.6-3.26-1.06-3.03ZM304.72,163.56c-.75.84.62,2.3,1.44,1.3s-.62-2.21-1.44-1.3ZM309.26,166.6c-1.26.31-.92,2.52.68,2.13,1.32-.33.92-2.52-.68-2.13ZM317.11,169.22c1.44,1.27,3.21-1.34,1.47-2.18-1.37-.66-2.58,1.2-1.47,2.18Z"/>
      <path d="M336.93,176.61c2.13-2.59,4.05-5.57,4.46-8.98l-1.26,2.29c-1.37,2.24-2.98,4.35-5,6.05l1.97-2.62c1.25-1.83,2.69-4.62,2.99-6.82.02-.15.13-.48-.11-.44-1.38,2.77-3.13,5.57-5.1,7.97-.38.46-1.06,1.32-1.47,1.68-.15.13-.21.34-.47.29l4.12-6.75,1.67-3.79c0-.36-.01-.3-.17-.03-.8,1.32-1.77,2.56-2.76,3.75,1.74-3.81,2.86-7.91,3.14-12.11,1.08-16.42-10.63-33.39-28.38-31.83-.82.07-1.68.36-2.48.46-.15.02-.49.14-.47-.11.81-.33,1.61-.71,2.45-.96,11.99-3.56,25.32,7.45,29.74,17.97l3.42,1.9.62,23.68c-1.23,2.66-3.11,4.97-5.16,7.04l-1.76,1.35Z"/>
      <path d="M162.13,173.24l2.85-4.74.57-1.81-2.98,4.2-.68.56c-.21-.1.02-.33.09-.45.71-1.35,1.42-2.69,2.07-4.07.02-.41-.16-.1-.25.03-.89,1.25-1.66,2.66-2.82,3.69.6-1.44,1.54-2.73,1.82-4.31-.87,1.08-1.53,2.33-2.39,3.42-.15.19-1.16,1.5-1.34,1.34.69-1.11,1.44-2.25,1.91-3.49.19-.5.45-1.17.37-1.66l-.94.98c-.1.02-.09-.13-.07-.2.23-.79.78-1.77,1.04-2.64,1.6-5.37,1.23-12.33-.54-17.63-.37-1.09-1.01-2.11-1.35-3.1-.02-.07-.04-.22.06-.2l1.64,2.16c.25.03.12-.31.09-.45-.16-.72-.61-1.49-.87-2.19l-2.13-3.61c1.95,1.6,3.58,3.75,4.82,5.93.25.03.11-.29.07-.42-.64-2.04-2.28-3.84-3.52-5.54.26-.07.33.14.49.26,1.61,1.29,3.46,3.81,4.44,5.63.16.3.21.28.17-.04-.08-.64-.58-1.73-.86-2.34-1.17-2.53-2.84-4.64-4.86-6.52.83.05,1.82.89,2.45,1.45,5.81,5.17,7.69,14.43,6.92,21.89-.51,4.94-2.13,10.73-6.24,13.86Z"/>
      <path class="cls-9" d="M138.96,144.55c6.35-1.25,7.85,9.9,7.54,14.15-.29,3.86-2.98,12.49-8.43,9.14-5.81-3.56-6.17-19.03-.34-22.72.32-.2.87-.5,1.23-.57ZM141.24,146.39c-1.49-1.31-3.2.1-4.07,1.43-2.77,4.26-2.61,12.57,0,16.86,2.87,4.7,6.09,1.67,7.35-2.22.75-2.3,1.12-4.2-.06-6.43-1.93-3.61-4.95-.75-5.51,2.06-.44,2.19.16,4.4.81,6.47-3.78-5.02-2.49-13.61,3.02-16.92-.33-.69-2,.34-2.45.62-1.38.87-2.11,1.99-2.95,3.29.41-2.1,1.62-4.59,3.86-5.19Z"/>
      <path class="cls-3" d="M141.22,143.48c3.64.18,8.12,2.47,9.92,5.7,1.62,2.91,2.29,6.15,2.81,9.41-1.97-.16-3.95.28-5.92.18-.28-.01-.57-.04-.79-.21-.51-.38-.53-1.46-.69-2.04-.24-.83-.53-1.65-.88-2.44-.69-1.52-1.63-2.94-2.88-4.06-1.96-1.77-4.74-2.47-7.31-2.63-.08,0-.17-.01-.22-.08-.05-.06-.03-.15,0-.23.33-1.15,1.31-1.93,2.27-2.55,1.09-.71,2.4-1.12,3.7-1.06Z"/>
      <path class="cls-9" d="M114.5,145.44c4.52-.48,6.35,6.52,6.61,9.9.28,3.72-.68,12.34-5.7,12.54-4.75.19-6.45-8.29-6.39-11.82.05-3.25,1.42-10.19,5.49-10.62ZM116.08,147.01c-1.27-1.18-2.81-.14-3.67,1.01-2.94,3.92-2.76,13.3.34,17.08s5.83-.51,6.64-3.59c.51-1.93.73-3.24-.13-5.08-1.71-3.7-4.75-1.34-5.35,1.61-.43,2.11.13,4.04.66,6.06l-.79-1.07c-1.38-2.72-1.45-6.84-.44-9.69.75-2.14,2.3-3.9,4.14-5.19.03-.64-2.05.46-2.23.56-1.12.69-2.16,1.83-2.64,3.06-.24.04-.14-.31-.12-.45.33-1.66,1.79-3.99,3.58-4.32Z"/>
      <polygon class="cls-9" points="303.57 84.38 289.67 84.58 291.73 73.87 301.17 74.97 303.57 84.38"/>
      <path class="cls-9" d="M284.02,73.41l-2.9,11.06c-2.19.35-4.24-.42-5.2-2.47l-2.51-9.56,10.62.97Z"/>
      <path class="cls-4" d="M228.92,159.48c3.84-3.69,5.19-9.3,5.7-14.44,2.01,2.67,2.28,6.36,1.68,9.59-.3,1.6-.87,3.4-1.81,4.72l-5.57.14Z"/>
      <path class="cls-9" d="M397.05,126.99l-.03-1.1,3.51-.09c.54-.01.93-1.34.85-1.81-.11-.11-.94.49-1.19.55-1.74.41-1.71-.9-2.31-2.03-.22-.41-.85-1.03-.86-1.37-.03-.89,1.74-1.02,2.39-.94.44.05.68.36,1.05.31-.72-1.07-1.74-1.7-3.06-1.51l-.04-1.65,3.92-.1c.75-.02,1.75,1.05,1.94,1.77.26.96.3,4.39.02,5.33-.18.62-1.56,2.52-2.13,2.53l-4.06.1Z"/>
      <polygon class="cls-9" points="309.53 75.94 308.77 84.07 305.63 84.13 303.47 75.4 309.53 75.94"/>
      <polygon class="cls-9" points="310.15 84.04 310.71 76.04 313.27 76.34 314.96 83.92 310.15 84.04"/>
      <polygon class="cls-9" points="285.38 84.69 288.09 73.87 290.24 73.9 288.3 84.39 288.12 84.64 285.38 84.69"/>
      <polygon class="cls-4" points="167.7 70.37 162.73 80.67 162.2 73.39 167.7 70.37"/>
      <polygon class="cls-9" points="250.89 85.7 253.95 85.38 258.1 87.99 250.98 89.27 250.89 85.7"/>
      <g>
        <path class="cls-7" d="M233.53,142.87c-1.25-.18-3.85-2.12-4.11-3.44.12-4.14-.63-8.81-.36-12.89.12-1.72,2.81-2.49,4.2-2.85-.36-.24-1.02-.3-1.45-.31-1.56-.07-3.34.08-4.88.26-.05-6.48-.26-12.97-.35-19.46-.23-16.98-.57-34.02-.56-51,0-.55.03-1.43-.05-1.94-.19-1.19-3.28-3.94-3.29-5.42,0-.34.71-1.28.89-1.69.7-1.58,1.1-3.26,1.25-4.98.09-1.05-.45-2.21,1.22-1.53,2.82,1.14,7.9,5.59,8.33,8.74l2.3,91.5c.12,1.34,1.34,2.66,2.4,3.41,1.32.92,3.49.24,5.07.35.27-1.21.67-2.62,1.73-3.39.14-.1.92-.51,1.01-.52l23.58-.58c-.42.94-.71,2.01-.75,3.04l-17.99,1.2,15,.81,4.55,16.51,13.06-.32c-.81-7.9-.16-15.87,2.88-23.22,4.64-11.22,15.21-20.83,27.71-21.81,6.96-.55,14.53.26,20.77,3.42-.62,2.76-.41,5.29,1.92,7.15,2.87,2.29,8.23,2.61,11.82,3.66,4.68,1.38,9.37,3.74,12.36,7.6l-.26-11.68-19.38.45c-.75.02-2.39-.88-2.99-1.37-3.71-3.03-1.15-7.59,2.89-8.25,4.59.12,9.46-.55,14.02-.35,1.95.09,4.04.55,5.48,1.93.04-1.41-.76-2.31-1.73-3.2-.16-.15-.42-.16-.42-.19l-.19-7.56-3.71,5.87-.59-23.58c.16-1.57.25-3.15.85-4.62-1.9.5-3.26,2.1-4.17,3.75l-63.8,6.87c.79-2.21,2.87-4.38,5.21-4.9,9.43-1.24,18.92-2.07,28.36-3.22,15.08-1.83,30.12-4.34,45.24-5.64,6.21,1.15,12.7,1.55,18.89,2.72,10,1.9,8.02,11.85,8.3,19.63.4,11.29.76,22.63.99,33.94-.01.73-.38,1.37-.78,1.94-.25.16-3.46.17-4.06.18-5.52.04-11.12.11-16.63-.01-1.92-.04-2.54.35-4.34-.65-1.53-.85-2.7-2.08-3.56-3.59l-1.01-2.68.15,5.98c0,.23.48.75.51,1.02l-23.43.14c-2.28-6.85-7.23-12.72-13.27-16.59-8.77-5.62-19.04-5.9-27.51.46-12.26,9.21-16.68,26.36-14.78,41.11l-.11.16-26.74,1.28c-.32,0-.63-.13-.95-.13-5.11.05-10.19-.05-15.28-.16l-11.49-.27-.07-2.95.2-.21,29.9-.74-.39-15.67-24.75.61-.05-2.2c-.86-.08-2,.19-2.82.07ZM229.62,121.1l4.67-.12-1.06-.94c-.72-.8-.93-1.89-1.11-2.93l-1.6-64.6c-.38-2.56-1.54-5.17-3.67-6.72.26.7.49,1.41.63,2.16.19.99.2,1.99.39,2.97l1.73,70.17ZM356.28,85.85c-.18,2.37.3,5.09.19,7.49l1.95-7.34c.61,2.35,1.25,4.75,2.2,6.99.06.14.05.41.25.37.12-4.06-1.07-8.75,1.63-12.21-3.11-.01-5.95,1.26-6.21,4.69ZM367.1,85.68c-.67.14-1.13.77-1.38,1.37l1.05,45.16c.09,1.11.91,2.11,2.05,2.22,2.57.25,5.63.01,8.26.06,3.7.07,7.44.29,11.14.29,2.07,0,3.24-.09,3.46-2.49l-.99-39.87c-.04-1.19-.56-2.26-1.69-2.74l-20.87-4.02c-.34-.05-.69-.05-1.03.02ZM343.71,136.56l10.52-.26-5.71-2.67c-6.18-3.43-14.46-7.89-15.13-15.76-4.34-1.69-9.31-2.95-14.01-2.57-.49.04-1.54.1-1.84.46,12.03.71,20.67,11.08,26.17,20.81ZM344.08,115.38c-5.44-.51-7.64,6.09-1.67,7.6,0-.43-.39-.71-.48-1.19-.21-1.1-.06-2.74.84-3.49l1.44,2.71-.14-5.64ZM359.91,115.95l-13.94-.05-.22.19.16,6.53,13.54-.34c.35,0,.92-.6.95-.98l-.16-.28c-.98.11-2.31.5-3.28.35-.61-.1-1.89-1.28-2.52-1.58l-.03,1.65-4.47.11-1.98-2.15-.12-1.78,5.29-.13c.67-.02.93,1.38.8,1.9.81-.03,1.14-.97,1.06-1.68,1.19.08,2.61-.22,3.77-.08.57.07.72.38,1.19.51l-.05-2.2ZM232.24,137.88l-.27-10.79-.98,4.97-.21-.41-1.01-4.37.28,11.34c0,.3.79,1.09,1.06,1.28,1.34.94,3.46,1.1,5.05,1.25l-2.65-1.51c-.47-.39-1.16-1.15-1.28-1.76Z"/>
        <path class="cls-7" d="M281.74,97.8c-5.05-1.39-10.8-1.57-15.5,1.02l-1.37.91c5.6-1.33,11.43-1.02,17.05,0l.22,8.65c.5-.17,2.9.27,2.91.82l.21,8.59-2.75.07.15,6.18-12.58.31c-.5.01-1.89.71-1.68,1.42l11.48-.28c.57-.01.93.83.79,1.36l-14.92.37c-1.06-1.1-1.81-2.49-2.09-4.01l-.36-15.24c.11-.36,2.95-.89,3.48-.98,1.8-.29,3.54-.31,5.34-.43.17-.01.51.09.48-.15-3.1-.47-6.23-.45-9.36-.32-.18-1.1,1.68-.87,2.42-1.26l6.88-1.03c-3.09-.66-6.26-.76-9.36-.05l-.35-14.22c.37-.46.95-.77,1.49-1,3.31-1.43,13.32-1.87,16.34.18.22.15.88.68.89.9l.2,8.18ZM280.29,89.45c-1.33-.78-2.89-1.22-4.44-1.33,1.1.58,2.66,1.29,2.83,2.67.19,1.64-.04,3.54.12,5.21l1.67.46-.17-7.01ZM281.4,123.25l-.56-22.61c-.56-.4-1.4-.43-2.07-.43l.54,21.92c0,.09-.35.53-.46.63-.28.24-.72.28-.88.57l3.44-.09Z"/>
        <path class="cls-7" d="M345.51,101.18c.04.24-.31.14-.48.15-2.83.18-6.04.44-8.63,1.72-.13.07-.32.09-.33.29,5.63.73,11.16,3.67,14.92,7.88-.88-.32-1.68-.84-2.55-1.2-2.8-1.15-6.2-1.89-9.2-2.32-14.9-2.14-28.99.9-42.26,7.63-1.08.55-2.11,1.21-3.21,1.71,4.39-5.63,10.75-9.8,17.59-11.85-.06-.25-.28-.25-.48-.27-2.57-.22-6.47.24-9.05.66-1.45.24-2.9.6-4.33.91,3.51-2.89,8.07-4.95,12.47-6.18,11.48-3.21,24.15-2.09,35.54.87Z"/>
        <path class="cls-7" d="M241.56,63.21c1.23-.77,2.71-.87,4.12-.95.41-.99,1.21-1.58,2.32-1.44,3.71.83,7.65,1.36,11.3,2.37,1.48.41,3.06.81,1.43,2.49-.2,6.64.29,13.38.33,20.06-.07.65,2.52,1.47,2.52,1.72l-.8.85-10.04-5.68c-2.09-.15-9.4.31-10.62-1.54l-.57-17.89ZM251.56,62.66c-1.24-.03-2.53-.41-3.54-1.15-1.53,1.71.75,1.94,1.26,3.33-.1,4.07.45,8.34.31,12.38-.02.66-.13,2.08-.49,2.59s-2.3.59-2.71.27c-.84-.66-1.18-3.46-1.42-4.5-.03-.13-.06-.41-.25-.37l.16,6.46,7.15-.18-.47-18.83ZM259.45,64.66l-6.51-1.77.32,18.42,6.19-16.65ZM259.96,85.14l-.46-18.42-5.53,15.06,5.98,3.36Z"/>
        <path class="cls-7" d="M281.67,134.11l-43.31,1.07-.11-4.26,38.29-.95c1.72,1.36,3.53,2.64,5.12,4.14Z"/>
        <path class="cls-7" d="M237.86,59.28c3.3-1.65,6.94-2.61,10.6-3.13,5.76-.82,11.75-.8,17.56-.57l.21.21.64,2.44c-2.11-.02-4.28.14-6.39.37-3.67.4-7.58,1.49-11.25,1.38-1.15-.04-1.99-.36-3.27-.16-.99.16-1.62.82-2.55,1.07-.69.19-1.36.12-2.07.45-1.04.48-1.85,2.05-1.98,3.14l-1.37.18-.13-5.36Z"/>
        <path class="cls-7" d="M321.6,74.54c-4.89-1.59-9.61-4.03-14.7-4.93l-6.31-6.92v-.27s.87-1.2.87-1.2l.31-.05,13.07,4.76,6.76,8.62Z"/>
        <path class="cls-7" d="M261.77,124.7v1.15s-.31.23-.31.23l-15.53.38c-3.15-.19-5.42-2.43-5.72-5.56-.57-6,.02-12.51-.46-18.57.21-3.31,0-6.7.52-9.98.21,1.61.46,3.25.6,4.87.4,4.81.38,9.62.49,14.42.06,2.54-.18,9.09.76,11.06.47.99,2.1,2.42,3.22,2.4l16.43-.41Z"/>
        <path class="cls-7" d="M277.93,66.27c-2.11.01-4.15.76-6.24.98-.79.08-2.17.22-2.9-.05-.61-.23-2.03-2.99-3.04-3.72s-2.83-.44-1.92-2.49c.41-.93,2.65-1.72,3.58-2.15,1.21,2.18,3.94,3.16,6.26,2.24l4.25,5.19Z"/>
        <path class="cls-7" d="M408.05,137.72l-9.63.1c1.05-.81,1.56-1.73,2.07-2.93l2.02,1.25c-.75-2.43-2.11-4.51-4.27-5.87.7.15,2.31-.89,2.78-.86.97.06,2.79,1.7,3.45,2.43,1.48,1.63,2.8,3.86,3.59,5.89Z"/>
        <path class="cls-7" d="M247.01,84.22l-2.01,2.18c.14.21.28.17.48.2,1.27.15,2.6.23,3.63-.64.07,2.16-.97,4.06-3.16,4.58-4.9,1.16-4.83-3.77-4.06-7.15.21-.16,1.68.95,2.05,1.02.9.18,2.15-.12,3.06-.18Z"/>
        <polygon class="cls-7" points="292.23 60.55 289.05 60.08 289.43 58.28 291.57 58.64 292.23 60.55"/>
        <polygon class="cls-7" points="279.25 58.67 276.22 58.33 276.74 56.55 278.8 56.68 279.25 58.67"/>
      </g>
      <polygon class="cls-6" points="319.78 78.71 320.59 78.7 321.25 82.16 319.89 82.97 319.78 78.71"/>
      <path d="M232.24,137.88c.12.61.81,1.37,1.28,1.76l2.65,1.51c-1.59-.15-3.71-.3-5.05-1.25-.27-.19-1.06-.98-1.06-1.28l-.28-11.34,1.01,4.37.21.41.98-4.97.27,10.79Z"/>
      <path d="M215.37,140.15l-2.03,1.49c-.69.72-1.42,1.38-1.82,2.32l-19.6.79c-1.61,1.2-2.85,2.82-3.98,4.47.67-2.93,1.91-5.86,4.16-7.91l23.26-1.15Z"/>
      <path d="M189.54,141.34c-1.14,1.23-2.63,2.29-3.23,3.91l-4.28.16-2.91,2.93c.56-2.33,2.29-4.47,4.21-5.85.21-.15,1.5-1.03,1.6-1.03l4.61-.11Z"/>
      <path d="M312.32,166.22c.76-.8,1.79-1.4,2.56-2.19,1.33-1.37,2.39-3.18,2.9-5.02-1.93.1-3.84.37-5.69-.37-3.49-1.4-4.05-6.21-1.91-9l2.09-1.84c-2.62.65-5.57,2.15-7.32,4.24-.31.38-.54.84-.82,1.23-.09.13-.27.44-.25.03.81-6.09,6.91-11.29,12.84-7.44,7.71,5.01,5.75,20.16-4.41,20.35Z"/>
      <path d="M324.92,154.68c2.7-.18,2.93,4.07.2,4.16-2.69.09-2.91-3.98-.2-4.16Z"/>
      <path d="M323.35,146.59c2.27-.18,2.54,3.3.19,3.41-2.16.1-2.42-3.23-.19-3.41Z"/>
      <path d="M322.9,161.45c1.66-.23,2.66,2.08,1.06,3.03-2.24,1.33-3.59-2.68-1.06-3.03Z"/>
      <path d="M319.98,143.98c-1.42,1.52-3.72-.86-2.08-2.18,1.56-1.25,3.24.92,2.08,2.18Z"/>
      <path d="M312.59,140.41c1.17,1.08-.43,3.13-1.84,2-1.39-1.12.46-3.28,1.84-2Z"/>
      <path d="M317.11,169.22c-1.11-.98.09-2.84,1.47-2.18,1.74.84-.02,3.45-1.47,2.18Z"/>
      <path d="M309.26,166.6c1.6-.39,2,1.8.68,2.13-1.6.39-1.94-1.82-.68-2.13Z"/>
      <path d="M304.75,145.39c1.39-.33,1.77,1.63.68,1.99-1.48.48-2.05-1.67-.68-1.99Z"/>
      <path d="M304.72,163.56c.82-.91,2.26.29,1.44,1.3s-2.19-.46-1.44-1.3Z"/>
      <polygon points="259.45 64.66 253.26 81.32 252.95 62.9 259.45 64.66"/>
      <polygon points="259.96 85.14 253.98 81.78 259.5 66.72 259.96 85.14"/>
      <path d="M141.24,146.39c-2.24.6-3.45,3.08-3.86,5.19.85-1.31,1.58-2.43,2.95-3.29.45-.28,2.12-1.31,2.45-.62-5.51,3.31-6.8,11.9-3.02,16.92-.65-2.08-1.24-4.28-.81-6.47.56-2.81,3.58-5.67,5.51-2.06,1.19,2.22.81,4.12.06,6.43-1.26,3.89-4.48,6.92-7.35,2.22-2.62-4.3-2.77-12.6,0-16.86.87-1.34,2.57-2.75,4.07-1.43Z"/>
      <path d="M116.08,147.01c-1.79.33-3.24,2.66-3.58,4.32-.03.14-.12.49.12.45.48-1.23,1.51-2.37,2.64-3.06.17-.11,2.26-1.2,2.23-.56-1.83,1.29-3.38,3.05-4.14,5.19-1,2.85-.93,6.97.44,9.69l.79,1.07c-.53-2.02-1.09-3.96-.66-6.06.6-2.95,3.64-5.31,5.35-1.61.86,1.85.64,3.16.13,5.08-.81,3.08-3.52,7.39-6.64,3.59s-3.28-13.15-.34-17.08c.86-1.15,2.4-2.19,3.67-1.01Z"/>
      <polygon class="cls-9" points="368.71 87.53 369.83 132.68 368.45 132.71 367.33 87.28 368.71 87.53"/>
      <polygon class="cls-9" points="371.74 88.15 372.84 132.68 371.47 132.71 370.36 87.91 371.74 88.15"/>
      <polygon class="cls-9" points="374.78 88.76 375.87 132.74 374.64 132.77 373.54 88.52 374.78 88.76"/>
      <path class="cls-9" d="M380.73,89.85l1.06,43.02c-.42-.03-.94.18-1.24-.18l-1.06-42.95,1.24.11Z"/>
      <polygon class="cls-9" points="377.68 89.24 378.76 132.81 377.66 132.84 376.58 89.13 377.68 89.24"/>
      <polygon class="cls-9" points="386.39 90.95 387.43 132.8 387.21 133 386.33 132.9 385.29 90.84 386.39 90.95"/>
      <polygon class="cls-9" points="383.49 90.33 384.54 132.94 383.58 132.96 382.52 90.22 383.49 90.33"/>
      <path class="cls-9" d="M389.08,132.97l-1.03-41.64c.58-.09.86.52.86,1l.99,40.15c.04.55-.38.51-.82.49Z"/>
      <path class="cls-9" d="M360.55,114.38c.02-.14.77.19.35.09-1.98-.49-2.97-.74-3-.75-2.63-.45-5.44.18-9.64.03-2.63-.09-3.65-.41-6.09-.1-1.95.25-3.02.68-3.85,1.49-.99.98-1.28,2.15-1.39,2.61-.08.36-.55,2.55.71,4.38.9,1.31,2.21,1.73,4.36,2.38.44.13,2.05.6,5.48.88,2.57.21,2.27,0,7.44.07,3.47.05,5.09.16,5.75-.88.15-.24.18-.66.24-1.49.1-1.6.2-3.11-.07-5.26-.17-1.39-.06-1.95.07-2.55.11-.54-.38-.76-.36-.9Z"/>
      <polygon class="cls-4" points="236.58 124.08 225.81 123.93 221.85 35.16 236.5 40.88 236.58 124.08"/>
      <path class="cls-4" d="M214.33,14.41l17.66-10.71.96-.41,45.92,11.99.76,5.97-47.63-12.29-10.4,10.5.24,9.83,4.19-2.99-.07-2.75,19.53,5.29-17.48-2.87-.18.82,40.7,12.6.42.41,1.94,9.03c-2.17.03-3.72,1.72-4.45,3.62-.26.17-2.94-.12-3.51-.13-6.52-.09-13.5.19-19.84,1.8-1.82.46-3.62,1.05-5.32,1.85l-.23-9.41c-.11-4.43-6.45-10.19-10.28-11.76-4.66-1.91-7.86,3.79-8.1,7.7-.24,3.96,1.61,6.58,3.67,9.65.28,11.21.24,22.41.55,33.62l-6.33-.69-3.29-54.29,3.42,4.8-2.54-10.66-6.44-2.05,5.32,61.89-106.37,48.44-3.71,9.16-1.25-50.51,77.01-45.43-8.58,17.81-12.12,6.65,1.25,12.33,2.45-1.16-3.46,7.51-11.67,6.62,1.27,12.21,3.05-1.69-.69-8.14,5.23-2.88-1.86,4.2-1.63,7.71,43.24-87.43c1.3-1.54,3.76.3,5.3.62,2.14.45,3.47-.06,5.11-1.42,2.96.38,5.69,1.64,8.4,2.81l-.19-7.77ZM172.93,87.23l-.1-4.19-4.21,2.1,7.88-15.12.22,3.43,3.06-1.59c.13-.22.05-1.25.03-1.59-.1-1.72-.57-3.81-.57-5.48,0-.98.77-1.59,1.52-2.06,2.2-1.38,4.76-2.42,6.87-3.93l-.1-4.19-4.14,2.3-.21-.2,9.31-18.08,6.08-3.57-.13-6.97,6.66-2.39-7.58-2.98c-.67-.02-1.82,1.63-2.34,2.05.52.13,1.11-.13,1.64-.19.18-.02.32-.21.28.14l-43.32,83.87.07.2,3.1-2.83c.31-.06.2.1.18.31-.05.48-.33,1.04-.35,1.55l.2-.07,4.73-9.19.43,3.29,2.92-1.58c.08-2.4-.3-4.81-.52-7.2l.67-1.39,7.71-4.47ZM202.84,50.66l-.11-4.4-11.96,6.57c.13.85.27,1.73.35,2.59.27,2.89.33,6.71.93,9.46.04.17-.1.25.2.2l2.93-1.67-.69-8.14,8.35-4.61ZM205.41,65.59l-11.73,6.36-.22.46,1.12,11.81c.03.18-.07.25.21.2.15-.03,2.54-1.32,2.7-1.46.08-.06.17-.1.19-.22.03-.4.02-.81,0-1.21-.11-1.73-.44-3.48-.55-5.21-.03-.43-.12-1.51.09-1.81l8.29-4.73-.1-4.19ZM155.93,72.73l-10.33,5.57,1.09,10.27c-.03.2,0,.25.21.2.25-.05,2.45-1.34,2.48-1.52l-.49-6.92,7.12-4.09-.09-3.5ZM189.23,78.78l-.11-4.4-11.95,6.68,1.34,12.28,2.89-1.81-.52-8.14,8.35-4.61ZM142.35,80.21l-10.33,5.57c.25,2.05.5,4.1.71,6.15.14,1.36.14,2.76.38,4.11.03.15-.06.29.2.2.29-.09,2.45-1.34,2.49-1.52l-.49-6.92,7.12-4.09-.09-3.5ZM130.14,87.12l-10.11,5.61.87,10.22.21.33,2.49-1.52-.49-6.91,7.12-4.09-.09-3.64ZM117.75,97.53l-.09-3.64-10.15,5.71,1.04,10.28c.05.14-.06.25.21.17.7-.21,1.64-1.1,2.39-1.38l-.53-7.05,7.12-4.09ZM145.12,97.33l-11.27,6.26,1.32,11.32,2.75-1.68-.51-7.59,7.81-4.32-.1-3.99ZM132.59,108.03l-.1-4.05-10.91,6.06-.22.47,1.11,10.98.21.2,2.77-1.67-.72-7.58,7.86-4.4ZM119.41,114.75l-.1-3.85-10.32,5.82,1.17,10.64,2.52-1.39-.57-7.16,7.3-4.06Z"/>
      <path d="M172.93,87.23l-7.71,4.47-.67,1.39c.22,2.39.61,4.8.52,7.2l-2.92,1.58-.43-3.29-4.73,9.19-.2.07c.02-.51.3-1.07.35-1.55.02-.21.12-.37-.18-.31l-3.1,2.83-.07-.2,43.32-83.87c.04-.34-.1-.16-.28-.14-.53.06-1.11.31-1.64.19.52-.43,1.68-2.07,2.34-2.05l7.58,2.98-6.66,2.39.13,6.97-6.08,3.57-9.31,18.08.21.2,4.14-2.3.1,4.19c-2.12,1.51-4.67,2.55-6.87,3.93-.75.47-1.52,1.07-1.52,2.06,0,1.68.46,3.76.57,5.48.02.34.09,1.37-.03,1.59l-3.06,1.59-.22-3.43-7.88,15.12,4.21-2.1.1,4.19Z"/>
      <path d="M205.41,65.59l.1,4.19-8.29,4.73c-.21.3-.11,1.38-.09,1.81.1,1.73.43,3.48.55,5.21.03.4.04.81,0,1.21-.02.11-.11.15-.19.22-.17.14-2.55,1.43-2.7,1.46-.28.05-.18-.02-.21-.2l-1.12-11.81.22-.46,11.73-6.36Z"/>
      <polygon points="189.23 78.78 180.88 83.38 181.4 91.53 178.52 93.34 177.17 81.06 189.12 74.38 189.23 78.78"/>
      <polygon points="145.12 97.33 145.22 101.32 137.41 105.64 137.92 113.23 135.17 114.91 133.85 103.6 145.12 97.33"/>
      <polygon points="132.59 108.03 124.73 112.43 125.44 120.01 122.67 121.68 122.46 121.48 121.35 110.5 121.58 110.03 132.49 103.97 132.59 108.03"/>
      <polygon points="119.41 114.75 112.11 118.81 112.68 125.96 110.16 127.36 108.99 116.72 119.31 110.9 119.41 114.75"/>
      <path d="M142.35,80.21l.09,3.5-7.12,4.09.49,6.92c-.04.18-2.2,1.42-2.49,1.52-.27.09-.18-.05-.2-.2-.24-1.35-.24-2.75-.38-4.11-.22-2.05-.46-4.11-.71-6.15l10.33-5.57Z"/>
      <path d="M155.93,72.73l.09,3.5-7.12,4.09.49,6.92c-.03.18-2.23,1.47-2.48,1.52-.21.05-.24,0-.21-.2l-1.09-10.27,10.33-5.57Z"/>
      <polygon points="130.14 87.12 130.23 90.76 123.11 94.85 123.61 101.77 121.12 103.29 120.91 102.95 120.03 92.73 130.14 87.12"/>
      <path d="M117.75,97.53l-7.12,4.09.53,7.05c-.75.27-1.69,1.16-2.39,1.38-.27.08-.16-.03-.21-.17l-1.04-10.28,10.15-5.71.09,3.64Z"/>
      <path d="M367.1,85.68c.34-.07.69-.08,1.03-.02l20.87,4.02c1.13.48,1.65,1.55,1.69,2.74l.99,39.87c-.22,2.41-1.39,2.49-3.46,2.49-3.7,0-7.44-.21-11.14-.29-2.63-.05-5.69.19-8.26-.06-1.14-.11-1.97-1.11-2.05-2.22l-1.05-45.16c.24-.6.71-1.23,1.38-1.37ZM368.56,87.54l-1.09-.09-.14.87,1.18,43.75c.21.63.55.6,1.16.54l-1.12-45.08ZM371.74,88.15l-1.38-.24,1.11,44.81,1.37-.03-1.1-44.53ZM374.78,88.76l-1.24-.24,1.1,44.26,1.24-.03-1.09-43.98ZM377.68,89.24l-1.1-.11,1.08,43.71,1.1-.03-1.08-43.57ZM380.73,89.85l-1.24-.11,1.06,42.95c.3.35.83.15,1.24.18l-1.06-43.02ZM383.49,90.33l-.97-.11,1.06,42.74.96-.02-1.05-42.61ZM386.39,90.95l-1.1-.11,1.04,42.06.88.11.22-.2-1.04-41.85ZM389.08,132.97c.44.01.86.05.82-.49l-.99-40.15c0-.49-.28-1.09-.86-1l1.03,41.64Z"/>
      <path d="M229.62,121.1l-1.73-70.17c-.19-.98-.21-1.98-.39-2.97-.14-.74-.37-1.46-.63-2.16,2.13,1.55,3.29,4.16,3.67,6.72l1.6,64.6c.17,1.03.39,2.13,1.11,2.93l1.06.94-4.67.12Z"/>
      <path d="M343.71,136.56c-5.51-9.73-14.15-20.09-26.17-20.81.3-.37,1.35-.42,1.84-.46,4.7-.38,9.67.88,14.01,2.57.67,7.88,8.95,12.34,15.13,15.76l5.71,2.67-10.52.26Z"/>
      <path d="M359.91,115.95l.05,2.2c-.48-.13-.63-.44-1.19-.51-1.16-.13-2.58.16-3.77.08.08.71-.25,1.64-1.06,1.68.13-.52-.14-1.92-.8-1.9l-5.29.13.12,1.78,1.98,2.15,4.47-.11.03-1.65c.63.3,1.91,1.48,2.52,1.58.97.16,2.3-.24,3.28-.35l.16.28c-.03.38-.6.97-.95.98l-13.54.34-.16-6.53.22-.19,13.94.05Z"/>
      <path d="M356.28,85.85c.26-3.43,3.1-4.71,6.21-4.69-2.7,3.46-1.5,8.15-1.63,12.21-.2.04-.19-.23-.25-.37-.95-2.24-1.59-4.64-2.2-6.99l-1.95,7.34c.12-2.4-.37-5.13-.19-7.49Z"/>
      <path d="M344.08,115.38l.14,5.64-1.44-2.71c-.9.75-1.06,2.39-.84,3.49.09.48.48.76.48,1.19-5.98-1.51-3.77-8.11,1.67-7.6Z"/>
      <path class="cls-5" d="M406.51,161.28l-10.6.26c-.23,0-.29-.31-.07-.39l4.62-1.58h.02c2.63-1.22,3.25-1.97,4.24-4.67v-.02s1.32-4.7,1.32-4.7c.06-.22.39-.18.39.05l.27,10.84c0,.11-.08.2-.19.2Z"/>
      <path d="M281.4,123.25l-3.44.09c.16-.29.6-.33.88-.57.11-.1.47-.54.46-.63l-.54-21.92c.67,0,1.52.03,2.07.43l.56,22.61Z"/>
      <path d="M280.29,89.45l.17,7.01-1.67-.46c-.15-1.67.08-3.57-.12-5.21-.16-1.38-1.73-2.1-2.83-2.67,1.55.11,3.11.55,4.44,1.33Z"/>
      <path d="M251.56,62.66l.47,18.83-7.15.18-.16-6.46c.19-.04.22.24.25.37.25,1.04.58,3.84,1.42,4.5.41.32,2.35.25,2.71-.27s.46-1.93.49-2.59c.14-4.04-.41-8.31-.31-12.38-.51-1.39-2.79-1.62-1.26-3.33,1,.74,2.29,1.12,3.54,1.15Z"/>
      <path class="cls-4" d="M351.06,163.34l12.08-.24c.26,0,.31-.35.06-.41l-5.34-1.45h-.02c-3.05-1.16-3.8-1.92-5.06-4.74v-.02s-1.73-4.92-1.73-4.92c-.08-.23-.45-.17-.44.07l.23,11.5c0,.12.11.21.23.21Z"/>
      <path class="cls-10" d="M421.42,177.75c-5.72-1.55-14.68-1.78-20.76-2.17-5.43-.34-10.91-.45-16.32-.84l4.13-1.24c2.53-1.03,5.95-2.72,5.87-5.89l17.45-.98.27-27.57c-1.64-4.18-3.85-8.41-7.42-11.24.99-.95,1.7-2.54,1.81-3.91.11-1.43.04-5-.44-6.27-.52-1.36-2.75-3.47-4.25-3.43l-4.47.11c-.23-5.88-.18-11.78-.43-17.67-.17-4.02.07-8.21-2.11-11.74-2.09-3.38-5.04-5.04-8.89-5.75-6.95-1.26-14.07-1.96-21.07-2.83l-40.43,5.28c-.3-.06-.59-3.46-.88-3.97l4.26-.11-10.84-14.13-14.65-5.34c.33-4.98-5.91-9.55-9.49-4.76-.46.62-.7,1.64-.98,2.02-.26.34-1.9-.2-2.38-.25-1.46-5.11-7.39-6.68-10.07-1.53l-2.78-.2c-.4-1.29-1.13-2.46-2.16-3.34l-2.87-12.74c-.33-.45-3.67-1.07-3.67-1.36l15.01-13.37.07-.34c-.35-1.09-.83-9.03-1.2-9.33L232.47,0l-.97.42-20.24,12.28.12,4.88c-.72-.27-1.44-.55-2.19-.73-1.47-.36-3.28-.75-4.71-.13-.76.33-1.09,1.17-1.97,1.22-1.3.07-3.12-1.25-4.58-1.39-2.87-.26-4.19.81-5.5,3.19-3.87,7.02-6.83,14.82-10.86,21.74l-82.36,48.6,1.85,77.38,3.23-.08c.79,1.42,1.32,2.95,2.18,4.34.92,1.47,2.09,2.71,3.32,3.92h-.07c.46.39.79.84,1.07,1.32,1.79,1.71,3.39,3.18,5.77,4.29,3.45.86,7.4.65,10.65.8,6.84.3,13.52,1.49,20.4,1.14,5.9-.3,11.66-.88,16.76-4.06,4.32-2.69,8.47-7.07,9.08-12.34.11-.91.62-1.84,1.35-2.45.8-.71,1.89-1.02,2.89-.54.79.16,1.5.59,1.91,1.3,1.55.76,2.99,1.73,4.65,2.2,1,.29,2.03.48,3.06.66.05,0,.1.01.14.02,1.58-.08,3.15-.2,4.73-.25,7.26-.23,14.55-.04,21.82-.24,2.56-.07,5.12-.11,7.67-.13,5.44-.6,11.14-.4,16.43-.52,3.96-.09,7.91-.34,11.87-.37,4.06-.03,8.1.37,12.16.48,4.1.11,8.22-.07,12.28-.68,1.88-.28,3.76-.59,5.67-.56,1.87.02,3.82.42,5.29,1.3.32.16.62.38.88.64.73.64,1.24,1.47,1.44,2.5,0,0,0,.01,0,.02.47,1.53.96,3.18,1.58,4.78,3.54,6.38,11.84,8.72,18.97,9.53.16.02.32.05.47.08,5.83-.07,11.66-.14,17.49-.22.23,0,.61-.1.76.12l34.23-.85.46-.16c13.21-.34,26.44-.92,39.59-1.8,6.11-.41,14.14-.52,19.97-2.07,1.99-.53,2.71-1.12.23-1.79ZM404.46,131.83c1.48,1.63,2.8,3.86,3.59,5.89l-9.63.1c1.05-.81,1.56-1.73,2.07-2.93l2.02,1.25c-.75-2.43-2.11-4.51-4.27-5.87.7.15,2.31-.89,2.78-.86.97.06,2.79,1.7,3.45,2.43ZM405.62,142.18c1.08,0,2.25.21,3.37.06l-.28,20.47c0,.63-.51,1.15-1.14,1.18l-59.32,3.05c-.68.04-1.26-.5-1.28-1.18l-.57-23.08c.21.1.38.13.61.13,19.53,0,39.07-.75,58.6-.64ZM401.38,124c-.11-.11-.94.49-1.19.55-1.74.41-1.71-.9-2.31-2.03-.22-.41-.85-1.03-.86-1.37-.03-.89,1.74-1.02,2.39-.94.44.05.68.36,1.05.31-.72-1.07-1.74-1.7-3.06-1.51l-.04-1.65,3.92-.1c.75-.02,1.75,1.05,1.94,1.77.26.96.3,4.39.02,5.33-.18.62-1.56,2.52-2.13,2.53l-4.06.1-.03-1.1,3.51-.09c.54-.01.93-1.34.85-1.81ZM301.47,61.21l.31-.05,13.07,4.76,6.77,8.62c-4.89-1.59-9.61-4.03-14.7-4.93l-6.31-6.92v-.27s.87-1.2.87-1.2ZM321.25,82.16l-1.37.81-.11-4.26h.81s.66,3.45.66,3.45ZM314.96,83.92l-4.81.12.56-7.99,2.57.29,1.69,7.58ZM309.53,75.94l-.76,8.13-3.14.06-2.16-8.73,6.07.54ZM294.68,53.82c.3-.26.65-.53,1.05-.61,4.69-.98,6.39,6.85,2.76,8.66-3.99,1.99-7.19-5.13-3.81-8.05ZM300.99,75.11l2.41,8.96-13.47.33,1.9-10.23,9.16.94ZM289.43,58.28l2.14.35.66,1.91-3.18-.47.37-1.79ZM290.09,74.01l-1.92,10.13-.16.25h-2.48s2.62-10.44,2.62-10.44l1.95.07ZM283.46,52.14c2.46-.41,4.29,2.45,4.42,4.61.14,2.47-1.73,5.33-4.47,4.26-3.52-1.38-3.72-8.24.06-8.87ZM282.66,124.05l-12.58.31c-.5.01-1.89.71-1.68,1.42l11.48-.28c.57-.01.93.83.79,1.36l-14.92.37c-1.06-1.1-1.81-2.49-2.09-4.01l-.36-15.24c.11-.36,2.95-.89,3.48-.98,1.8-.29,3.54-.31,5.34-.43.17-.01.51.09.48-.15-3.1-.47-6.23-.45-9.36-.32-.18-1.1,1.68-.87,2.42-1.26l6.88-1.03c-3.09-.66-6.26-.76-9.35-.04l-.35-14.23c.37-.46.95-.77,1.49-1,3.31-1.43,13.32-1.87,16.34.18.21.15.88.68.89.9l.2,8.18c-5.05-1.39-10.8-1.57-15.5,1.02l-1.37.91c5.6-1.33,11.43-1.02,17.05,0l.22,8.65c.5-.17,2.9.27,2.91.82l.21,8.59-2.75.07.15,6.18ZM239.75,102.34c.21-3.31,0-6.7.52-9.98.21,1.61.46,3.25.6,4.87.4,4.81.38,9.62.49,14.42.06,2.54-.18,9.09.76,11.06.47.99,2.1,2.42,3.22,2.4l16.43-.41v1.15s-.31.23-.31.23l-15.53.38c-3.15-.19-5.42-2.43-5.72-5.56-.57-6,.02-12.51-.46-18.57ZM245.48,86.6c1.27.15,2.6.23,3.63-.64.07,2.16-.97,4.06-3.16,4.58-4.9,1.16-4.83-3.77-4.06-7.15.21-.16,1.68.95,2.05,1.02.9.18,2.15-.12,3.06-.18l-2.01,2.18c.14.21.28.17.48.2ZM250.89,85.64l3.05-.32,4.16,2.61-7.12,1.28-.09-3.57ZM252.75,82.63c-2.09-.15-9.4.31-10.62-1.54l-.57-17.89c1.23-.77,2.71-.87,4.12-.95.41-.99,1.21-1.58,2.32-1.44,3.71.83,7.65,1.36,11.3,2.37,1.48.41,3.06.81,1.43,2.49-.2,6.64.29,13.38.33,20.06-.07.65,2.52,1.47,2.52,1.72l-.8.85-10.04-5.68ZM260.47,58.59c-3.67.4-7.58,1.49-11.25,1.38-1.15-.04-1.99-.36-3.27-.16-.99.16-1.62.82-2.55,1.07-.69.19-1.36.12-2.07.45-1.04.48-1.85,2.05-1.98,3.14l-1.37.18-.13-5.36c3.3-1.65,6.94-2.61,10.6-3.13,5.76-.82,11.75-.8,17.56-.57l.21.21.64,2.44c-2.11-.02-4.28.14-6.39.37ZM276.55,129.97c1.72,1.36,3.53,2.64,5.12,4.14l-43.31,1.07-.11-4.26,38.29-.95ZM284.02,73.41l-2.9,11.06c-2.19.35-4.24-.42-5.2-2.47l-2.51-9.56,10.62.97ZM276.74,56.55l2.06.13.45,1.99-3.03-.34.52-1.79ZM277.93,66.27c-2.11.01-4.15.76-6.24.98-.79.08-2.17.22-2.9-.05-.61-.23-2.03-2.99-3.04-3.72-1.02-.74-2.83-.44-1.92-2.49.41-.93,2.65-1.72,3.58-2.15,1.21,2.18,3.94,3.16,6.26,2.24l4.25,5.19ZM273.61,59.01c-4.02,3.03-8.05-4.74-4.24-7.79.29-.23.61-.47.98-.55,4.36-.92,6.25,6.08,3.26,8.34ZM115.41,167.88c-4.75.19-6.45-8.29-6.39-11.82.05-3.25,1.42-10.19,5.49-10.62,4.52-.48,6.35,6.52,6.61,9.9.28,3.72-.68,12.34-5.7,12.54ZM126.83,172.73c-.15.12-.88.69-1.01.58,1.27-1.57,2.31-3.36,2.89-5.3l-2.81,3.09c.38-1.02,1.23-1.9,1.23-3.06-.69,1.08-1.43,2.37-2.4,3.22-.13.11-.77.67-.88.57.55-1.03,1.38-2.3,1.7-3.41.02-.07.03-.23-.07-.2l-1.88,2.11c-.1.02-.09-.13-.07-.2.17-.58.7-1.48.94-2.19,2.9-8.49,2.11-19.79-3.32-27.11l1.9,1.46,1.77,2.3c-.1-1.52-1-2.73-1.59-4.04-.06-.12-.31-.34-.1-.45,1.34,1.31,2.55,2.82,3.48,4.45.26.02.1-.28.06-.42-.07-.27-.21-.67-.31-.94-.36-.96-.93-1.81-1.37-2.72,1.48,1.13,2.46,2.78,3.48,4.31l-.26-1.56-.8-2.12c2.32,2.78,3.57,6.48,4.15,10.02,1.01,6.14.44,17.32-4.74,21.62ZM129.79,139.31l-2.53-1.93,6.26-.15,1.61,1.66c-.97,1.04-1.67,2.34-2.03,3.71l-3.31-3.29ZM146.5,158.7c-.29,3.86-2.98,12.49-8.43,9.14-5.81-3.56-6.17-19.03-.34-22.72.32-.2.87-.5,1.23-.57,6.35-1.25,7.85,9.9,7.54,14.15ZM157.27,164.12c-.59,2.88-1.76,5.99-3.83,8.1.44-.99.96-1.95,1.3-2.99.36-1.09.64-2.24.74-3.39l-3.49,6.14c0-.58.49-1.15.74-1.71.65-1.49,1.2-3.04,1.37-4.66l-3.5,6c-.21-.1.03-.33.08-.46.69-1.75,1.59-3.43,1.77-5.36l-2.58,4.05-.47.42c.86-2.01,1.56-4.08,1.98-6.24,1.14-5.86.83-12.69-1.04-18.37-.41-1.24-1.11-2.38-1.5-3.5-.02-.07-.04-.22.06-.2.78.5,1.32,1.82,1.92,2.36.17.15.17.01.14-.14-.1-.52-.59-1.72-.82-2.25-.31-.7-.78-1.34-1.08-2.04,1.58,1.26,2.69,2.99,3.9,4.58,0-.68-.33-1.55-.61-2.18-.34-.77-.86-1.42-1.22-2.17,1.39,1.04,2.25,2.62,3.4,3.9-.34-2.57-2.22-4.52-3.87-6.37.09-.09,1.14.75,1.26.86,6.09,5.53,6.9,18.07,5.35,25.63ZM168.37,159.38c-.51,4.94-2.13,10.73-6.24,13.86l2.85-4.74.57-1.81-2.98,4.2-.68.56c-.21-.1.02-.33.09-.45.71-1.35,1.42-2.69,2.07-4.07.02-.41-.16-.1-.25.03-.89,1.25-1.66,2.66-2.82,3.69.6-1.44,1.54-2.73,1.82-4.31-.87,1.08-1.53,2.33-2.39,3.42-.15.19-1.16,1.5-1.34,1.34.69-1.11,1.44-2.25,1.91-3.49.19-.5.44-1.17.37-1.66l-.94.98c-.1.02-.09-.13-.07-.2.23-.79.78-1.77,1.04-2.64,1.6-5.37,1.23-12.33-.54-17.63-.37-1.09-1.01-2.11-1.35-3.1-.02-.07-.04-.22.06-.2l1.64,2.16c.25.03.12-.31.09-.45-.16-.72-.61-1.49-.87-2.19l-2.13-3.61c1.95,1.6,3.58,3.75,4.82,5.93.25.03.11-.29.07-.42-.64-2.04-2.28-3.84-3.52-5.54.26-.07.33.14.49.26,1.61,1.29,3.46,3.81,4.44,5.63.16.3.21.28.17-.04-.08-.64-.58-1.73-.86-2.34-1.17-2.53-2.84-4.64-4.86-6.52.83.05,1.82.89,2.45,1.45,5.81,5.17,7.69,14.43,6.92,21.89ZM107.15,133.22l-3.71,9.16-1.25-50.51,77.01-45.43-8.58,17.81-12.12,6.65,1.25,12.33,2.45-1.16-3.46,7.51-11.67,6.62,1.27,12.21,3.05-1.69-.69-8.14,5.23-2.88-1.86,4.2-1.63,7.71,43.24-87.43c1.3-1.54,3.76.3,5.3.62,2.14.45,3.47-.06,5.11-1.42,2.96.38,5.69,1.64,8.4,2.81l-.19-7.77,17.66-10.71.96-.41,45.92,11.99.76,5.97-47.63-12.29-10.4,10.5.24,9.83,4.19-2.99-.07-2.75,19.53,5.29-17.48-2.87-.18.82,40.7,12.6.42.41,1.94,9.03c-2.17.03-3.72,1.72-4.45,3.62-.26.17-2.94-.12-3.51-.13-6.52-.09-13.5.19-19.84,1.8-1.82.46-3.62,1.05-5.32,1.85l-.23-9.41c-.11-4.43-6.45-10.19-10.28-11.76-4.66-1.91-7.86,3.79-8.1,7.7-.24,3.96,1.61,6.58,3.67,9.65.28,11.21.24,22.41.55,33.62l-6.33-.69-3.29-54.29,3.42,4.8-2.54-10.66-6.44-2.04,5.32,61.89-106.37,48.44ZM167.7,70.37l-4.97,10.3-.53-7.28,5.5-3.02ZM225.97,51.25c-.19-1.19-3.28-3.94-3.29-5.42,0-.34.71-1.28.89-1.69.7-1.58,1.1-3.26,1.25-4.98.09-1.05-.45-2.21,1.22-1.53,2.82,1.14,7.9,5.59,8.33,8.74l1.94,76.91c-.87-.13-4.11.11-4.5.09-1.56-.07-3.34.08-4.88.26-.05-6.48-.26-12.97-.35-19.46-.23-16.98-.57-34.02-.56-51,0-.55.03-1.43-.05-1.94ZM172.34,135.72c-.1-.08,1.12-2.09,1.52-2.11l49.75-19.1c.2,3.98.11,7.76.97,11.67.46,2.09,1.33,4.07,1.74,6.14-.76-.2-1.74-.07-2.51.1-.68.15-1.29.63-1.8.7-1.02.15-2.37.01-3.45.08-13.49.79-27.02,1.57-40.52,2.25-1.91.1-3.81.02-5.71.27ZM228.11,165.49c-.39-.16-1.89-1.5-2.26-1.87-6.85-6.92-4.92-16.67.52-23.74l-8.59.21c-1.59,1.78-3.89,5.17-4.01,7.59,0,.16-.02.3.14.14.55-.55,1.16-1.71,1.73-2.38.31-.36,1.72-1.9,2.08-1.91l4.61-.11c-1.38,2.15-2.68,4.6-2.71,7.22l-6.32.16c-.42,4.52.72,9.42,3.89,12.77.57.61,1.27,1.06,1.83,1.67l-2.96.07c-.21,0-2.04-1.65-2.32-1.93-4.07-4.18-5.19-9.74-3.89-15.38.18-.78.51-1.5.84-2.22-.23-.23-2.21,1.79-2.42,2.06-.69.87-1.23,1.93-1.58,2.99l-19.39.48c-1.24,5.93,1.94,10.92,6.14,14.7l-3.92.1c-2.04-2.19-3.91-4.75-4.8-7.65-1.15-3.72-.75-8.11.81-11.64-1.54.98-2.72,2.67-3.05,4.48l-3.99.1c-.82,5.17,1.32,10.49,5.5,13.61.56.42,1.23.72,1.75,1.2-4.3.26-7.36-3.16-8.39-7.05-1.68-6.36-.16-14.48,6.07-17.77,1.66-.88,2.18-.67,3.95-.8,12.09-.93,24.42-.98,36.56-1.59.46-.02,2.89-.39,3.08-.21.06,1.25.7,2.04,1.8,2.56l.05.19c-4.61,6.84-6.11,16.63.97,22.43-.27.42-1.24,1.74-1.73,1.54ZM228.92,159.48c3.84-3.69,5.19-9.3,5.7-14.44,2.01,2.67,2.28,6.36,1.68,9.59-.3,1.6-.87,3.4-1.81,4.72l-5.57.14ZM286.09,163.08l-.11.16-26.74,1.28c-.32,0-.63-.13-.95-.13-5.11.05-10.19-.05-15.28-.16l-11.49-.27-.07-2.95.2-.21,29.9-.74-.39-15.67-24.75.61-.05-2.2c-.86-.08-2,.19-2.82.07-1.25-.18-3.85-2.12-4.11-3.44.12-4.14-.63-8.81-.36-12.89.08-1.25,5.13-1.01,7.29-1.56l.32,12.89c.12,1.34,1.34,2.66,2.4,3.41,1.32.92,3.49.24,5.07.35.27-1.21.67-2.62,1.73-3.39.14-.1.92-.51,1.01-.52l23.58-.58c-.42.94-.71,2.01-.75,3.04l-17.99,1.2,15,.81,4.55,16.51,13.06-.32c-.81-7.9-.16-15.87,2.88-23.22,4.64-11.22,15.21-20.83,27.71-21.81,6.96-.55,14.53.26,20.77,3.42-.62,2.76-.41,5.29,1.92,7.15,2.87,2.29,8.23,2.61,11.82,3.66,4.68,1.38,9.34,3.74,12.33,7.6l-.23-11.68s0-.07,0-.11c0-.37,0-.73,0-1.1,0-.55,0-1.1-.01-1.65-.01-.64-.03-1.29-.05-1.93-.01-.3-.02-.6-.04-.91-.02-.51-.04-1.02-.09-1.53-.05-.53-.1-1.05-.15-1.58-.03-.35-.07-.72-.27-1.02-.15-.23-.38-.4-.62-.53-.12-.07-.25-.13-.36-.22-.13-.1-.26-.2-.39-.3-.02-.02-.15-.09-.15-.12l-.19-7.56-3.71,5.87-.59-23.58c.16-1.57.25-3.15.85-4.62-1.9.5-3.26,2.1-4.17,3.75l-63.8,6.87c.79-2.21,2.87-4.38,5.21-4.9,9.43-1.24,18.92-2.07,28.36-3.22,15.08-1.83,30.12-4.34,45.24-5.64,6.21,1.15,12.7,1.55,18.89,2.72,10,1.9,8.02,11.85,8.3,19.63.4,11.29.76,22.63.99,33.94-.01.73-.38,1.37-.78,1.94-.25.16-3.46.17-4.06.18-5.52.04-11.12.11-16.64-.01-1.92-.04-2.54.35-4.34-.65-1.53-.85-2.7-2.08-3.56-3.59l-1.01-2.68.15,5.98c0,.23.48.75.51,1.02l-23.43.14c-2.28-6.85-7.23-12.72-13.27-16.59-8.77-5.62-19.04-5.9-27.51.46-12.26,9.21-16.68,26.36-14.78,41.11ZM310.87,104.92c-2.57-.22-6.47.24-9.05.66-1.45.24-2.9.6-4.33.91,3.51-2.89,8.07-4.95,12.47-6.18,11.48-3.21,24.15-2.09,35.54.87.04.24-.31.14-.48.15-2.83.18-6.04.44-8.63,1.72-.13.07-.32.09-.33.29,5.63.73,11.16,3.67,14.92,7.88-.88-.32-1.68-.84-2.55-1.2-2.8-1.15-6.2-1.89-9.2-2.32-14.9-2.14-28.99.9-42.26,7.63-1.08.55-2.11,1.21-3.21,1.71,4.39-5.63,10.75-9.8,17.59-11.85-.06-.25-.28-.25-.48-.27ZM359.26,114.29c1.59.07,1.39,6.53,1.39,9.23l-18.49.43c-.75.02-2.39-.88-2.99-1.37-3.71-3.03-1.15-7.59,2.89-8.25,4.59.12,12.65-.24,17.21-.04ZM328.72,156.26c-.35,8.99-7.69,19.36-17.73,15.52-14.09-5.39-12.74-32.91,2.65-34.57,10.07-1.09,15.41,10.52,15.08,19.04ZM338.68,175.27l-1.76,1.35c2.13-2.59,4.05-5.57,4.46-8.98l-1.26,2.29c-1.37,2.24-2.98,4.35-5,6.05l1.97-2.62c1.25-1.83,2.69-4.62,2.99-6.82.02-.15.13-.48-.11-.44-1.38,2.77-3.13,5.57-5.1,7.97-.38.46-1.06,1.32-1.47,1.68-.15.13-.21.34-.47.29l4.12-6.75,1.67-3.78c0-.36-.01-.3-.17-.03-.8,1.32-1.77,2.56-2.76,3.75,1.74-3.81,2.86-7.91,3.14-12.11,1.08-16.42-10.63-33.39-28.38-31.83-.82.07-1.68.36-2.48.46-.15.02-.49.14-.47-.11.81-.33,1.61-.71,2.45-.96,11.99-3.56,25.32,7.45,29.74,17.97l3.42,1.9.62,23.68c-1.23,2.66-3.11,4.97-5.16,7.04ZM344.28,173.54l2.21-3.47,12.67-.59c.57,1.49,1.82,2.59,3.18,3.36l2.74,1.28-20.79-.59Z"/>
      <path d="M126.61,144.55c.26.02.1-.28.06-.42-.07-.27-.21-.67-.31-.94-.36-.96-.93-1.81-1.37-2.72,1.48,1.13,2.46,2.78,3.48,4.31l-.26-1.56-.8-2.12c2.32,2.78,3.57,6.48,4.15,10.02,1.01,6.14.44,17.32-4.74,21.62-.15.12-.88.69-1.01.58,1.27-1.57,2.31-3.36,2.89-5.3l-2.81,3.09c.38-1.02,1.23-1.9,1.23-3.06-.69,1.08-1.43,2.37-2.4,3.22-.13.11-.77.67-.88.57.55-1.03,1.38-2.3,1.7-3.41.02-.07.03-.23-.07-.2l-1.88,2.11c-.1.02-.09-.13-.07-.2.17-.58.7-1.48.94-2.19,2.9-8.49,2.11-19.79-3.32-27.11l1.9,1.46,1.77,2.3c-.1-1.52-1-2.73-1.59-4.04-.06-.12-.31-.34-.1-.46,1.34,1.31,2.55,2.82,3.48,4.45Z"/>
      <path d="M153.44,172.22c.44-.99.96-1.95,1.3-2.99.36-1.09.64-2.24.74-3.39l-3.49,6.14c0-.58.49-1.15.74-1.71.65-1.49,1.2-3.04,1.37-4.66l-3.5,6c-.21-.1.03-.33.08-.46.69-1.75,1.59-3.43,1.77-5.36l-2.58,4.05-.47.42c.86-2.01,1.56-4.08,1.98-6.24,1.14-5.86.83-12.69-1.04-18.37-.41-1.24-1.11-2.38-1.5-3.5-.02-.07-.04-.22.06-.2.78.5,1.32,1.82,1.92,2.36.17.15.17.01.14-.14-.1-.52-.59-1.72-.82-2.25-.31-.7-.78-1.34-1.08-2.04,1.58,1.26,2.69,2.99,3.9,4.58,0-.68-.33-1.55-.61-2.18-.34-.77-.86-1.42-1.22-2.17,1.39,1.04,2.25,2.62,3.4,3.9-.34-2.57-2.22-4.52-3.87-6.37.09-.09,1.14.75,1.26.86,6.09,5.53,6.9,18.07,5.35,25.63-.59,2.88-1.76,5.99-3.83,8.1Z"/>
      <g>
        <path class="cls-9" d="M417.79,344.81h2.43v1.52h-4.19v-23.64h4.15v1.52h-2.4v9.05h2.06v1.52h-2.06v10.03Z"/>
        <path class="cls-9" d="M422.72,343.97c0,.71.24,1.08.88,1.08s.88-.37.88-1.08v-3.44c0-5.81-3.41-6.48-3.41-13.07v-2.16c0-1.96.91-2.84,2.6-2.84s2.57.88,2.57,2.84v5.37h-1.65v-5.6c0-.71-.24-1.08-.88-1.08s-.88.37-.88,1.08v2.67c0,5.81,3.41,6.48,3.41,13.07v2.94c0,1.96-.91,2.84-2.6,2.84s-2.57-.88-2.57-2.84v-6.08h1.65v6.31Z"/>
        <path class="cls-9" d="M431.77,324.22h-1.62v22.12h-1.76v-22.12h-1.62v-1.52h5v1.52Z"/>
        <path class="cls-9" d="M431.84,344.04h1.55v2.3h-1.55v-2.3Z"/>
      </g>
      <g>
        <path class="cls-9" d="M435.5,323.5h.74c.64,0,.84-.3.91-.74h.84v23.64h-1.59v-21.58h-.91v-1.32Z"/>
        <path class="cls-9" d="M442.55,344.3v-7.33c-.27.57-.84.98-1.55.98-.95,0-1.69-.54-1.69-2.2v-10.7c0-1.72.88-2.53,2.4-2.53s2.4.81,2.4,2.53v19.04c0,1.72-.84,2.53-2.36,2.53s-2.33-.81-2.33-2.53v-4.42h1.49v4.63c0,.64.24.95.81.95.61,0,.84-.3.84-.95ZM442.55,335.55v-10.71c0-.64-.24-.95-.84-.95-.57,0-.81.3-.81.95v10.77c0,.74.24.98.74.98.54,0,.91-.47.91-1.05Z"/>
        <path class="cls-9" d="M448.77,334.1c.81.3,1.18.98,1.18,2.16v7.83c0,1.72-.84,2.53-2.36,2.53s-2.4-.81-2.4-2.53v-7.83c0-1.18.37-1.86,1.18-2.16-.81-.3-1.18-1.01-1.18-2.2v-6.85c0-1.72.88-2.53,2.4-2.53s2.36.81,2.36,2.53v6.85c0,1.18-.37,1.89-1.18,2.2ZM448.4,332.31v-7.43c0-.68-.24-.98-.81-.98-.61,0-.81.3-.81.98v7.43c0,.71.17,1.08.81,1.08.61,0,.81-.37.81-1.08ZM446.78,335.82v8.48c0,.64.2.98.81.98.57,0,.81-.34.81-.98v-8.48c0-.71-.2-1.05-.81-1.05-.64,0-.81.34-.81,1.05Z"/>
        <path class="cls-9" d="M451.03,322.76h4.69v1.45l-2.97,22.19h-1.72l3.28-22.08h-3.28v-1.55Z"/>
      </g>
    </g>
  </g>
</svg>