<?xml version="1.0" encoding="UTF-8"?>
<svg id="Layer_2" data-name="Layer 2" xmlns="http://www.w3.org/2000/svg" viewBox="0 0 77.24 47.44">
  <defs>
    <style>
      .cls-1 {
        fill: #011520;
      }
    </style>
  </defs>
  <g id="Icons">
    <path class="cls-1" d="M76.1,31.12h-.86v-4.69c0-1.2-.6-2.22-1.34-3.11l-6.52-9.39c-.74-.89-1.61-1.62-2.71-1.62h-8.3v-4.97h-3.57v15.8h-3.46c.75-6.56.67-13.13.65-13.98.05-1.14-.61-2.32-1.62-2.83L33.84.35c-.71-.32-1.68-.44-2.45-.29L3.49,3.89c-1.18.27-2.13,1.36-2.25,2.6L.01,19.78c-.11,1.22.6,2.47,1.8,3l3.76,1.45v14.18c0,.63.51,1.14,1.13,1.14h2.8c.07,4.37,3.64,7.9,8.02,7.9,3.77,0,6.94-2.63,7.79-6.14.85,3.52,4.02,6.14,7.8,6.14,4.38,0,7.95-3.53,8.02-7.9h15.31c.07,4.37,3.64,7.9,8.02,7.9s7.95-3.53,8.02-7.9h3.62c.63,0,1.13-.51,1.13-1.14v-6.15c0-.63-.51-1.14-1.13-1.14ZM17.52,43.75c-2.39,0-4.34-1.95-4.34-4.34s1.95-4.34,4.34-4.34,4.34,1.95,4.34,4.34-1.94,4.34-4.34,4.34ZM33.11,43.75c-2.39,0-4.34-1.95-4.34-4.34s1.95-4.34,4.34-4.34,4.34,1.95,4.34,4.34-1.95,4.34-4.34,4.34ZM44.77,28.29l-14.74,1.13c-.38,0-.67.02-.75-.02L3.74,19.57l1.12-12.16,26.96-3.69c.27-.04.64.04.64.04l13.84,5.71c.02,1.94.04,11.88-1.54,18.81ZM64.46,43.75c-2.39,0-4.33-1.95-4.33-4.34s1.95-4.34,4.33-4.34,4.34,1.95,4.34,4.34-1.95,4.34-4.34,4.34ZM69.53,25.06h-11.71c-.48,0-.88-.43-.88-.96v-7.27c0-.52.39-.96.88-.96l5.58-.03c.48,0,1.15.3,1.48.68l5.18,7.23c.34.38-.06,1.3-.54,1.3Z"/>
  </g>
</svg>