<?xml version="1.0" encoding="UTF-8"?>
<svg id="Layer_2" data-name="Layer 2" xmlns="http://www.w3.org/2000/svg" viewBox="0 0 52.5 51.13">
  <defs>
    <style>
      .cls-1 {
        fill: #011520;
      }
    </style>
  </defs>
  <g id="Icons">
    <g>
      <path class="cls-1" d="M3.23,0h-1.23C.9,0,0,.9,0,2v15.44c0,1.1.9,2,2,2h4.29c.81,0,1.83-.41,2.41-.98l6.46-6.28c.39-.37.6-.89.59-1.43-.01-.53-.25-1.04-.65-1.4L5.64.92c-.6-.53-1.61-.92-2.41-.92Z"/>
      <path class="cls-1" d="M20.99,30.39l7.87-8.13c.57-.59.98-1.6.98-2.41v-8.46c0-.96-.68-1.68-1.59-1.68-.24,0-.48.05-.72.15l-7.78,3.26c-.64.27-1.48.86-1.95,1.38l-4.8,5.33c-.54.6-.93,1.61-.93,2.41v7.18c0,1.1.9,2,2,2h4.5c.83,0,1.84-.43,2.41-1.02Z"/>
      <path class="cls-1" d="M50.69,43.19l-9.74-1.75c-1.19-.21-2.16.66-2.16,1.81v5.88c0,1.1.9,2,2,2h9.71c1.1,0,2-.9,2-2v-3.78c0-1.03-.79-1.98-1.81-2.16Z"/>
      <path class="cls-1" d="M33.17,24.13c0,.86.48,1.87,1.15,2.41l4.05,3.26c.19.15.41.6.41.85v4.02c0,1.02.75,1.97,1.74,2.21l9.77,2.33c.15.04.3.05.45.05.48,0,.93-.19,1.26-.53.32-.33.5-.78.5-1.27v-9.81c0-.79-.37-1.81-.89-2.41l-8.44-9.92c-.55-.65-1.56-1.11-2.41-1.11h-5.59c-1.1,0-2,.9-2,2v7.93Z"/>
      <path class="cls-1" d="M35.45,10.85h5.17c1.02,0,1.97-.74,2.21-1.73l1.71-6.91c.14-.55.03-1.12-.31-1.54s-.85-.67-1.42-.67h-7.37c-1.1,0-2,.9-2,2v6.85c0,1.1.9,2,2,2Z"/>
      <path class="cls-1" d="M51.22,18.55h0c.44,0,.84-.24,1.07-.63.14-.24.21-.53.21-.87V2c0-1.1-.85-2-1.9-2-.96,0-1.87.75-2.1,1.75l-2.36,10.05c-.2.86.08,1.96.68,2.62l3.26,3.57c.43.47.85.57,1.14.57Z"/>
      <path class="cls-1" d="M28.38,0h-15.24c-1,0-1.33.59-1.42.84s-.24.91.51,1.57l6.53,5.75c.46.41,1.16.65,1.85.65.3,0,.59-.05.84-.14l7.33-2.63c.91-.33,1.6-1.31,1.6-2.28v-1.77c0-1.1-.9-2-2-2Z"/>
      <path class="cls-1" d="M28.16,29.04l-2.46,2.43c-.33.32-.97.81-1.37,1.03l-3.96,2.23c-.8.45-1.38,1.44-1.38,2.36v1.49c0,1.02.79,1.98,1.79,2.17l12.43,2.42c.13.03.25.04.38.04.49,0,.95-.19,1.28-.53.33-.34.51-.8.51-1.29v-7.9c0-.88-.52-1.88-1.23-2.4l-3.19-2.28c-.82-.58-2.1-.48-2.81.22Z"/>
      <path class="cls-1" d="M15.12,50.34c.25.5.77.79,1.42.79h16.84c1.1,0,2-.9,2-2v-.41c0-1.02-.79-1.98-1.79-2.17l-12.91-2.52c-.9-.18-2.02.26-2.57.99l-2.76,3.71c-.39.52-.47,1.11-.22,1.61Z"/>
      <path class="cls-1" d="M0,33.6c0,1.05.73,1.6,1.46,1.6h0c.31,0,.62-.09.92-.28l4.56-2.81c.77-.47,1.33-1.47,1.33-2.38v-4.12c0-.78-.32-1.76-.76-2.33-.5-.64-1.48-1.11-2.35-1.11h-3.15c-1.1,0-2,.9-2,2v9.43Z"/>
      <path class="cls-1" d="M0,49.13c0,1.1.9,2,2,2h5.4c.87,0,1.88-.51,2.4-1.21l4.56-6.14c.45-.61.79-1.64.79-2.4v-2.46c0-.96-.67-1.95-1.57-2.29l-3.8-1.47c-.78-.3-1.96-.2-2.67.23l-5.77,3.47c-.78.47-1.34,1.47-1.34,2.37v7.9Z"/>
    </g>
  </g>
</svg>