<?xml version="1.0" encoding="UTF-8"?>
<svg id="Layer_2" data-name="Layer 2" xmlns="http://www.w3.org/2000/svg" viewBox="0 0 58.02 67.43">
  <defs>
    <style>
      .cls-1 {
        fill: #011520;
      }
    </style>
  </defs>
  <g id="Icons">
    <g>
      <path class="cls-1" d="M57.52,61.38c0-1.84-2.55-3.48-6.57-4.59-.34-1.77-2.81-3.29-6.36-4.11-.38-1.69-2.91-2.99-5.99-2.99s-5.6,1.3-5.98,2.99c-3.54.82-6.02,2.34-6.36,4.12-4.02,1.11-6.57,2.75-6.57,4.59,0,3.34,8.47,6.05,18.91,6.05s18.91-2.71,18.91-6.05Z"/>
      <path class="cls-1" d="M47.16,47.19c0-1.27-1.03-2.29-2.29-2.29s-2.3,1.03-2.3,2.29,1.03,2.3,2.3,2.3,2.29-1.03,2.29-2.3Z"/>
      <path class="cls-1" d="M37.09,44.74c0-.82-.67-1.49-1.49-1.49s-1.49.66-1.49,1.49.67,1.49,1.49,1.49,1.49-.67,1.49-1.49Z"/>
      <path class="cls-1" d="M28.71,25.56c1.53,5.81,5.93,8.84,11.04,7.48,4.84-1.3,8.66-6.19,10.1-12.16-3.71-4.21-8.22-2.67-8.22-2.67-.54-2.49-3.38-5.84-7.91-6.82-2.07-.45-4.09-.31-5.77.29-.85-.84-2.03-1.49-3.41-1.79-2.72-.59-7.38.07-8.31,1.91l10.44,4.73c.99.55.88,1.5.88,1.5.03,2.83.46,4.88,1.16,7.55Z"/>
      <path class="cls-1" d="M57.23,13.63L26.64.23c-.98-.15-1.95-.23-2.88-.23-2.16,0-3.71.43-4.62.77l33.8,14.97c.9.5,1.04,1.34.98,1.75-1.21,9.05-6.86,16.64-13.74,18.47-1.02.27-2.04.4-3.04.4-7,0-12.4-6.56-12.85-15.59,0-.11.07-.91-.6-1.19L.53,8.92c-.45,2.37-1.75,11.32,2.68,16.68,2.12,2.57,16.95,9.21,24.5,12.36,2.4,1.88,5.59,2.98,8.78,2.98,1.34,0,2.68-.19,3.96-.55,9.77-2.79,17.32-13.77,17.57-25.56,0-.03,0-.8-.78-1.2Z"/>
    </g>
  </g>
</svg>