<?xml version="1.0" encoding="UTF-8"?>
<svg id="Layer_2" data-name="Layer 2" xmlns="http://www.w3.org/2000/svg" viewBox="0 0 59.72 49.32">
  <defs>
    <style>
      .cls-1 {
        fill: #011520;
      }
    </style>
  </defs>
  <g id="Icons">
    <path class="cls-1" d="M58.87,22.07L21.48.49c-1.12-.65-2.95-.65-4.06,0L.87,10.1c-.56.32-.83.75-.83,1.17,0,0,0,0,0,0L0,26.06c0,.43.28.86.85,1.18l37.39,21.59c1.13.65,2.94.65,4.06,0l16.55-9.62c.55-.32.83-.75.83-1.17l.04-14.79c0-.29-.23-.83-.85-1.18ZM38.68,22.72c2.17-1.26,5.69-1.26,7.88,0,2.18,1.26,2.19,3.3.03,4.56-2.17,1.26-5.69,1.26-7.88,0-2.18-1.26-2.2-3.3-.03-4.56ZM27.02,15.99c2.17-1.26,5.69-1.26,7.88,0,2.18,1.26,2.2,3.3.03,4.56-2.17,1.26-5.69,1.26-7.88,0-2.18-1.26-2.19-3.3-.03-4.56ZM15.36,9.26c2.17-1.26,5.69-1.26,7.88,0,2.18,1.26,2.19,3.3.03,4.56-2.17,1.26-5.69,1.26-7.88,0-2.19-1.26-2.19-3.3-.02-4.56Z"/>
  </g>
</svg>