<?xml version="1.0" encoding="UTF-8"?>
<svg id="Layer_2" data-name="Layer 2" xmlns="http://www.w3.org/2000/svg" viewBox="0 0 59.05 61.75">
  <defs>
    <style>
      .cls-1 {
        fill: #011520;
      }
    </style>
  </defs>
  <g id="Icons">
    <g>
      <path class="cls-1" d="M.24,53.85c-.74,2.19.33,4,1.92,4.75,1.49.7,3.77.1,4.68-1.65l5.77-11.11-6.91-5.19L.24,53.85Z"/>
      <path class="cls-1" d="M1.85,26.62c.3.12.62.18.94.19l4.37,2.55c-.97,2.27-1.51,4.28-1.22,5.5.56,2.33,2.53,3.64,3.79,4.65,2.71,2.19,8.42,5.84,8.42,5.84l-1.49,12.42c-.18,1.16.22,3.52,3.28,3.93,2.5.33,3.85-1.07,4.06-2.23l2.34-15.6c.22-.83-.02-1.94-.58-2.56l-9.05-8.49,4.82-5.99.49,5.66c.17,1.08.63,1.6,1.52,2.4,2.79,2.5,7.93,6.77,7.93,6.77,1.04.8,2.71.38,3.61-.86,1.35-1.86-.03-3.37-.03-3.37l-6.25-7.41s-.51-8.74-.88-11.93c-.34-2.48-1.02-5.15-6.11-6.04l-12.83-2.61c-1.48-.28-3.25.58-3.83,1.96L.27,22.53c-.69,1.62-.05,3.42,1.58,4.1ZM10.21,16.74l3.66,1.27c-1.39,1.85-3.08,4.41-4.55,7.05l-3.02-1.77,3.91-6.56Z"/>
      <path class="cls-1" d="M59.05,33.68l-12.25,3.56-2.61,7.78-5.64-3.14c-.23.4-.51.8-.85,1.19-.49.56-1.04,1.02-1.64,1.39l6.56,3.65-12.85,13.24h29.29v-27.67Z"/>
      <path class="cls-1" d="M30.54,0c-3.77,0-6.82,3.05-6.82,6.82s3.05,6.82,6.82,6.82,6.82-3.05,6.82-6.82-3.05-6.82-6.82-6.82Z"/>
    </g>
  </g>
</svg>