<?xml version="1.0" encoding="UTF-8"?>
<svg id="Layer_2" data-name="Layer 2" xmlns="http://www.w3.org/2000/svg" viewBox="0 0 76.59 60.8">
  <defs>
    <style>
      .cls-1 {
        fill: #011520;
      }
    </style>
  </defs>
  <g id="Icons">
    <g>
      <polygon class="cls-1" points="44.06 60.8 53.72 55.31 49.82 53.05 40.2 58.38 44.06 60.8"/>
      <polygon class="cls-1" points="7.15 28.47 0 32.43 3.86 34.85 11.06 30.76 7.15 28.47"/>
      <path class="cls-1" d="M75.54,39.06l-22.85-13.18-.95,1.18v1.74l20.78,11.99-14.16,8.28s-.02,0-.04,0l.03.03L12.37,22.53l14.17-8.31,14.14,8.15c.19-.37.4-.72.66-1.05l1.12-1.39-14.41-8.31c-.85-.49-2.1-.49-2.95,0l-15.74,9.19c-.65.38-1.04,1.02-1.04,1.71v2.49c-.01.7.38,1.34,1.04,1.72l47.51,27.43c.42.25.93.37,1.47.37s1.05-.13,1.47-.38l15.74-9.19c.65-.38,1.04-1.02,1.05-1.71v-2.5c0-.7-.39-1.34-1.04-1.71Z"/>
      <path class="cls-1" d="M26.79,19.52l-5.17,3c-.39.22-.38.59,0,.82l34.78,20.09c.4.23,1.03.22,1.41,0l5.17-3c.39-.22.39-.59,0-.82l-14.09-8.14v-5.4L66.88,3.63l-4.91-3.63-18.51,23.09c-.44.54-.67,1.22-.67,1.91v2.94l-14.58-8.42c-.39-.22-1.03-.22-1.41,0Z"/>
    </g>
  </g>
</svg>